<svg width="16" height="16" viewBox="0 0 16 16" fill="none" xmlns="http://www.w3.org/2000/svg">
<path d="M12.5 1.72498H3.5C2.39543 1.72498 1.5 2.62041 1.5 3.72498V12.725C1.5 13.8295 2.39543 14.725 3.5 14.725H12.5C13.6046 14.725 14.5 13.8295 14.5 12.725V3.72498C14.5 2.62041 13.6046 1.72498 12.5 1.72498Z" stroke="#666666" stroke-width="0.999998"/>
<path d="M2 3.72498C2 2.89655 2.67157 2.22498 3.5 2.22498L12.5 2.22498C13.3284 2.22498 14 2.89655 14 3.72498V8.22498L2 8.22498L2 3.72498Z" fill="#666666" fill-opacity="0.3"/>
<path fill-rule="evenodd" clip-rule="evenodd" d="M7.5 14.225V8.72498H8.5V14.225H7.5Z" fill="#666666"/>
<path fill-rule="evenodd" clip-rule="evenodd" d="M14 8.72498H2V7.72498H14V8.72498Z" fill="#666666"/>
<path d="M5.64697 9.9563L4.58252 12.8918H3.90674L4.97119 9.9563H5.64697Z" fill="#666666"/>
<path d="M11.6187 11.095H12.7114V11.8801H11.6187V12.9377H10.8335V11.8801H9.74072V11.095H10.8335V10.0198H11.6187V11.095Z" fill="#666666"/>
<g opacity="0.8">
<path d="M3.44287 7.38599C3.35563 7.38599 3.2749 7.37687 3.20068 7.35864C3.12646 7.34041 3.05485 7.31307 2.98584 7.27661V6.65747C3.04443 6.68221 3.10238 6.70435 3.15967 6.72388C3.21826 6.74341 3.26579 6.75317 3.30225 6.75317C3.36475 6.75317 3.40837 6.73625 3.43311 6.70239C3.45785 6.66984 3.47021 6.62166 3.47021 6.55786V4.14575C3.47021 3.96737 3.50407 3.82284 3.57178 3.71216C3.64079 3.60018 3.73649 3.51815 3.85889 3.46606C3.98128 3.41268 4.12386 3.38599 4.28662 3.38599C4.37646 3.38599 4.45915 3.3951 4.53467 3.41333C4.61019 3.43026 4.68376 3.45695 4.75537 3.49341V4.11255C4.69548 4.08911 4.63428 4.06763 4.57178 4.0481C4.51058 4.02726 4.45654 4.01685 4.40967 4.01685C4.37451 4.01685 4.34456 4.02401 4.31982 4.03833C4.29508 4.05135 4.2762 4.07284 4.26318 4.10278C4.25146 4.13143 4.24561 4.16984 4.24561 4.21802V6.62427C4.24561 6.89119 4.17204 7.08455 4.0249 7.20435C3.87907 7.32544 3.68506 7.38599 3.44287 7.38599Z" fill="#666666"/>
<path d="M4.85571 5.56152V4.87598H6.09717V5.56152H4.85571Z" fill="#666666"/>
<path d="M6.28833 5.56152V4.87598H7.52979V5.56152H6.28833Z" fill="#666666"/>
<path d="M9.6062 3.1665L8.40869 6.46899H7.64844L8.84595 3.1665H9.6062Z" fill="#666666"/>
<path d="M9.71167 5.56152V4.87598H10.9531V5.56152H9.71167Z" fill="#666666"/>
</g>
</svg>
