<svg width="48" height="48" viewBox="0 0 48 48" fill="none" xmlns="http://www.w3.org/2000/svg">
<path opacity="0.6" d="M45 41.75H40V46.25H45V41.75Z" fill="url(#paint0_radial_856_283)"/>
<path opacity="0.6" d="M3 46.25H8V41.75H3V46.25Z" fill="url(#paint1_radial_856_283)"/>
<path opacity="0.6" d="M40 41.75H8V46.25H40V41.75Z" fill="url(#paint2_linear_856_283)"/>
<path d="M39.5 5.5H8.5C6.29086 5.5 4.5 7.29086 4.5 9.5V40.5C4.5 42.7091 6.29086 44.5 8.5 44.5H39.5C41.7091 44.5 43.5 42.7091 43.5 40.5V9.5C43.5 7.29086 41.7091 5.5 39.5 5.5Z" fill="url(#paint3_linear_856_283)"/>
<path fill-rule="evenodd" clip-rule="evenodd" d="M8.5 6C6.567 6 5 7.567 5 9.5V40.5C5 42.433 6.567 44 8.5 44H39.5C41.433 44 43 42.433 43 40.5V9.5C43 7.567 41.433 6 39.5 6H8.5ZM4 9.5C4 7.01472 6.01472 5 8.5 5H39.5C41.9853 5 44 7.01472 44 9.5V40.5C44 42.9853 41.9853 45 39.5 45H8.5C6.01472 45 4 42.9853 4 40.5V9.5Z" fill="url(#paint4_linear_856_283)" fill-opacity="0.5"/>
<path d="M5 9.5C5 7.567 6.567 6 8.5 6H39.5C41.433 6 43 7.567 43 9.5V25H5V9.5Z" fill="url(#paint5_linear_856_283)"/>
<path fill-rule="evenodd" clip-rule="evenodd" d="M43 26H5V25H43V26Z" fill="#2A2A2A"/>
<path fill-rule="evenodd" clip-rule="evenodd" d="M23 44V26H24V44H23Z" fill="#2A2A2A"/>
<path fill-rule="evenodd" clip-rule="evenodd" d="M25 27H42V26H24V44H25V27Z" fill="white" fill-opacity="0.05"/>
<g opacity="0.8">
<path d="M9.16553 23.0231C9.00895 23.0231 8.85238 23.0104 8.6958 22.985C8.53923 22.9596 8.40592 22.9279 8.2959 22.8898V22.0265C8.39323 22.0603 8.5096 22.0921 8.64502 22.1217C8.78467 22.1556 8.92643 22.1725 9.07031 22.1725C9.47656 22.1725 9.76644 22.035 9.93994 21.7599C10.1177 21.4848 10.2065 21.1124 10.2065 20.6427V12.34C10.2065 11.7941 10.2891 11.3518 10.4541 11.0133C10.6191 10.6705 10.8561 10.4209 11.165 10.2643C11.474 10.1035 11.84 10.0231 12.2632 10.0231C12.4028 10.0231 12.5446 10.0337 12.6885 10.0548C12.8366 10.0717 12.9593 10.0971 13.0566 10.131V11.0133C12.9635 10.9752 12.8535 10.9414 12.7266 10.9117C12.5996 10.8821 12.4684 10.8673 12.333 10.8673C12.0664 10.8673 11.8506 10.9308 11.6855 11.0577C11.5247 11.1847 11.4084 11.3645 11.3364 11.5973C11.2645 11.8258 11.2285 12.0988 11.2285 12.4161V20.7125C11.2285 21.525 11.0402 22.1132 10.6636 22.4772C10.2912 22.8411 9.79183 23.0231 9.16553 23.0231Z" fill="#272863"/>
<path d="M19.0386 19.2018C19.1362 19.2018 19.2257 19.1904 19.3071 19.1676C19.3918 19.1416 19.465 19.1139 19.5269 19.0846V19.8414C19.4585 19.8805 19.356 19.9163 19.2192 19.9489C19.0858 19.9814 18.936 19.9977 18.77 19.9977C18.3892 19.9977 18.0946 19.887 17.8862 19.6656C17.6812 19.4443 17.5786 19.1074 17.5786 18.6549V15.3199H15.4351V19.9H14.4536V15.3199H13.3501V14.8805L14.1167 14.5192H19.644V15.3199H18.5601V18.5963C18.5601 18.8144 18.604 18.9707 18.6919 19.0651C18.7798 19.1562 18.8953 19.2018 19.0386 19.2018Z" fill="#272863"/>
<path d="M22.0366 17.1461L20.2104 14.5192H21.3384L22.6567 16.4967L23.9751 14.5192H25.0933L23.2622 17.1461L25.1909 19.9H24.063L22.6567 17.8004L21.2407 19.9H20.1177L22.0366 17.1461Z" fill="#272863"/>
<path d="M28.0425 19.9977C27.3817 19.9977 26.8543 19.7649 26.4604 19.2994C26.0698 18.8339 25.8745 18.1438 25.8745 17.2291C25.8745 16.3046 26.0747 15.6064 26.4751 15.1344C26.8755 14.6591 27.4045 14.4215 28.062 14.4215C28.3387 14.4215 28.5812 14.4589 28.7896 14.5338C28.9979 14.6054 29.1769 14.7047 29.3267 14.8317C29.4797 14.9554 29.6066 15.0953 29.7075 15.2516H29.7661C29.7498 15.1507 29.7336 15.0091 29.7173 14.8268C29.701 14.6412 29.6929 14.4801 29.6929 14.3434V12.3024H30.6841V19.9H29.9028L29.7368 19.153H29.6929C29.5952 19.3092 29.4699 19.4524 29.3169 19.5826C29.1672 19.7096 28.9881 19.8105 28.7798 19.8854C28.5715 19.9602 28.3257 19.9977 28.0425 19.9977ZM28.272 19.1871C28.7993 19.1871 29.172 19.0358 29.3901 18.733C29.6115 18.4303 29.7238 17.9778 29.7271 17.3756V17.2242C29.7271 16.583 29.6213 16.0914 29.4097 15.7496C29.2013 15.4078 28.8205 15.2369 28.2671 15.2369C27.8114 15.2369 27.4679 15.416 27.2368 15.774C27.0057 16.1289 26.8901 16.6204 26.8901 17.2487C26.8901 17.8737 27.0057 18.3538 27.2368 18.6891C27.4679 19.0211 27.813 19.1871 28.272 19.1871Z" fill="#272863"/>
<path d="M33.5894 17.1461L31.7632 14.5192H32.8911L34.2095 16.4967L35.5278 14.5192H36.646L34.8149 17.1461L36.7437 19.9H35.6157L34.2095 17.8004L32.7935 19.9H31.6704L33.5894 17.1461Z" fill="#272863"/>
</g>
<path d="M5 9.5C5 7.567 6.567 6 8.5 6H39.5C41.433 6 43 7.567 43 9.5V25H5V9.5Z" fill="url(#paint6_radial_856_283)" fill-opacity="0.75"/>
<path fill-rule="evenodd" clip-rule="evenodd" d="M23 27L6 27V26L23 26V27Z" fill="white" fill-opacity="0.05"/>
<path fill-rule="evenodd" clip-rule="evenodd" d="M42 25L6 25V24L42 24V25Z" fill="white" fill-opacity="0.05"/>
<path d="M13.3145 40.5864L11.8096 36.448H10.8213V35.252H12.6462L13.7974 38.4358L16.5488 30.6418H17.7786L14.342 40.5864H13.3145Z" fill="black" fill-opacity="0.25"/>
<path d="M13.3145 39.5864L11.8096 35.448H10.8213V34.252H12.6462L13.7974 37.4358L16.5488 29.6418H17.7786L14.342 39.5864H13.3145Z" fill="white"/>
<path d="M34.0947 35.4561H36.8291V36.6729H34.0947V39.4346H32.8779V36.6729H30.1504V35.4561H32.8779V32.667H34.0947V35.4561Z" fill="black" fill-opacity="0.25"/>
<path d="M34.0947 34.4561H36.8291V35.6729H34.0947V38.4346H32.8779V35.6729H30.1504V34.4561H32.8779V31.667H34.0947V34.4561Z" fill="white"/>
<path opacity="0.35" d="M39.5 6.5H8.5C6.84315 6.5 5.5 7.84315 5.5 9.5V40.5C5.5 42.1569 6.84315 43.5 8.5 43.5H39.5C41.1569 43.5 42.5 42.1569 42.5 40.5V9.5C42.5 7.84315 41.1569 6.5 39.5 6.5Z" stroke="url(#paint7_linear_856_283)" stroke-linecap="round" stroke-linejoin="round"/>
<defs>
<radialGradient id="paint0_radial_856_283" cx="0" cy="0" r="1" gradientUnits="userSpaceOnUse" gradientTransform="translate(39.993 44) scale(5.00946 2.25)">
<stop stop-color="#181818"/>
<stop offset="1" stop-color="#181818" stop-opacity="0"/>
</radialGradient>
<radialGradient id="paint1_radial_856_283" cx="0" cy="0" r="1" gradientUnits="userSpaceOnUse" gradientTransform="translate(8.00702 44) rotate(180) scale(5.00946 2.25)">
<stop stop-color="#181818"/>
<stop offset="1" stop-color="#181818" stop-opacity="0"/>
</radialGradient>
<linearGradient id="paint2_linear_856_283" x1="25.2093" y1="46.2678" x2="25.2093" y2="41.7496" gradientUnits="userSpaceOnUse">
<stop stop-color="#181818" stop-opacity="0"/>
<stop offset="0.5" stop-color="#181818"/>
<stop offset="1" stop-color="#181818" stop-opacity="0"/>
</linearGradient>
<linearGradient id="paint3_linear_856_283" x1="24" y1="5.47315" x2="24" y2="44.495" gradientUnits="userSpaceOnUse">
<stop stop-color="#5A5A5A"/>
<stop offset="1" stop-color="#333333"/>
</linearGradient>
<linearGradient id="paint4_linear_856_283" x1="24" y1="5.5" x2="24" y2="44.5" gradientUnits="userSpaceOnUse">
<stop offset="0.4" stop-color="#B9C6B9"/>
<stop offset="0.6" stop-color="#0E141F"/>
</linearGradient>
<linearGradient id="paint5_linear_856_283" x1="20.4622" y1="5.95146" x2="20.4617" y2="25.0348" gradientUnits="userSpaceOnUse">
<stop stop-color="#B1BFB1"/>
<stop offset="1" stop-color="#DAE6DA" stop-opacity="0.941176"/>
</linearGradient>
<radialGradient id="paint6_radial_856_283" cx="0" cy="0" r="1" gradientUnits="userSpaceOnUse" gradientTransform="translate(20.5 6) rotate(72.0904) scale(11.3815 43.7717)">
<stop stop-color="white"/>
<stop offset="0.9999" stop-color="white" stop-opacity="0.2"/>
<stop offset="1" stop-color="white" stop-opacity="0"/>
</radialGradient>
<linearGradient id="paint7_linear_856_283" x1="39" y1="7" x2="39" y2="42.9454" gradientUnits="userSpaceOnUse">
<stop stop-color="white"/>
<stop offset="0.0678164" stop-color="white" stop-opacity="0.235294"/>
<stop offset="0.946944" stop-color="white" stop-opacity="0.156863"/>
<stop offset="1" stop-color="white" stop-opacity="0.392157"/>
</linearGradient>
</defs>
</svg>
