<svg width="48" height="49" viewBox="0 0 48 49" fill="none" xmlns="http://www.w3.org/2000/svg">
<path opacity="0.6" d="M45 41.975H40V46.475H45V41.975Z" fill="url(#paint0_radial_856_283)"/>
<path opacity="0.6" d="M3 46.475H8V41.975H3V46.475Z" fill="url(#paint1_radial_856_283)"/>
<path opacity="0.6" d="M40 41.975H8V46.475H40V41.975Z" fill="url(#paint2_linear_856_283)"/>
<path d="M39.5 5.72498H8.5C6.29086 5.72498 4.5 7.51584 4.5 9.72498V40.725C4.5 42.9341 6.29086 44.725 8.5 44.725H39.5C41.7091 44.725 43.5 42.9341 43.5 40.725V9.72498C43.5 7.51584 41.7091 5.72498 39.5 5.72498Z" fill="url(#paint3_linear_856_283)" stroke="url(#paint4_linear_856_283)" stroke-opacity="0.5" stroke-width="0.999998"/>
<path d="M5 9.72498C5 7.79198 6.567 6.22498 8.5 6.22498H39.5C41.433 6.22498 43 7.79198 43 9.72498V25.225H5V9.72498Z" fill="url(#paint5_linear_856_283)"/>
<path fill-rule="evenodd" clip-rule="evenodd" d="M43 26.225H5V25.225H43V26.225Z" fill="#2A2A2A"/>
<path fill-rule="evenodd" clip-rule="evenodd" d="M23 44.225V26.225H24V44.225H23Z" fill="#2A2A2A"/>
<path fill-rule="evenodd" clip-rule="evenodd" d="M25 27.225H42V26.225H24V44.225H25V27.225Z" fill="white" fill-opacity="0.05"/>
<g opacity="0.8">
<path d="M9.16553 23.248C9.00895 23.248 8.85238 23.2354 8.6958 23.21C8.53923 23.1846 8.40592 23.1528 8.2959 23.1147V22.2515C8.39323 22.2853 8.5096 22.3171 8.64502 22.3467C8.78467 22.3805 8.92643 22.3975 9.07031 22.3975C9.47656 22.3975 9.76644 22.2599 9.93994 21.9849C10.1177 21.7098 10.2065 21.3374 10.2065 20.8677V12.5649C10.2065 12.019 10.2891 11.5768 10.4541 11.2383C10.6191 10.8955 10.8561 10.6458 11.165 10.4893C11.474 10.3285 11.84 10.248 12.2632 10.248C12.4028 10.248 12.5446 10.2586 12.6885 10.2798C12.8366 10.2967 12.9593 10.3221 13.0566 10.356V11.2383C12.9635 11.2002 12.8535 11.1663 12.7266 11.1367C12.5996 11.1071 12.4684 11.0923 12.333 11.0923C12.0664 11.0923 11.8506 11.1558 11.6855 11.2827C11.5247 11.4097 11.4084 11.5895 11.3364 11.8223C11.2645 12.0508 11.2285 12.3237 11.2285 12.6411V20.9375C11.2285 21.75 11.0402 22.3382 10.6636 22.7021C10.2912 23.0661 9.79183 23.248 9.16553 23.248Z" fill="#272863"/>
<path d="M19.0386 19.4268C19.1362 19.4268 19.2257 19.4154 19.3071 19.3926C19.3918 19.3665 19.465 19.3389 19.5269 19.3096V20.0664C19.4585 20.1055 19.356 20.1413 19.2192 20.1738C19.0858 20.2064 18.936 20.2227 18.77 20.2227C18.3892 20.2227 18.0946 20.112 17.8862 19.8906C17.6812 19.6693 17.5786 19.3324 17.5786 18.8799V15.5449H15.4351V20.125H14.4536V15.5449H13.3501V15.1055L14.1167 14.7441H19.644V15.5449H18.5601V18.8213C18.5601 19.0394 18.604 19.1956 18.6919 19.29C18.7798 19.3812 18.8953 19.4268 19.0386 19.4268Z" fill="#272863"/>
<path d="M22.0366 17.3711L20.2104 14.7441H21.3384L22.6567 16.7217L23.9751 14.7441H25.0933L23.2622 17.3711L25.1909 20.125H24.063L22.6567 18.0254L21.2407 20.125H20.1177L22.0366 17.3711Z" fill="#272863"/>
<path d="M28.0425 20.2227C27.3817 20.2227 26.8543 19.9899 26.4604 19.5244C26.0698 19.0589 25.8745 18.3688 25.8745 17.4541C25.8745 16.5296 26.0747 15.8314 26.4751 15.3594C26.8755 14.8841 27.4045 14.6465 28.062 14.6465C28.3387 14.6465 28.5812 14.6839 28.7896 14.7588C28.9979 14.8304 29.1769 14.9297 29.3267 15.0566C29.4797 15.1803 29.6066 15.3203 29.7075 15.4766H29.7661C29.7498 15.3757 29.7336 15.234 29.7173 15.0518C29.701 14.8662 29.6929 14.7051 29.6929 14.5684V12.5273H30.6841V20.125H29.9028L29.7368 19.3779H29.6929C29.5952 19.5342 29.4699 19.6774 29.3169 19.8076C29.1672 19.9346 28.9881 20.0355 28.7798 20.1104C28.5715 20.1852 28.3257 20.2227 28.0425 20.2227ZM28.272 19.4121C28.7993 19.4121 29.172 19.2607 29.3901 18.958C29.6115 18.6553 29.7238 18.2028 29.7271 17.6006V17.4492C29.7271 16.8079 29.6213 16.3164 29.4097 15.9746C29.2013 15.6328 28.8205 15.4619 28.2671 15.4619C27.8114 15.4619 27.4679 15.641 27.2368 15.999C27.0057 16.3538 26.8901 16.8454 26.8901 17.4736C26.8901 18.0986 27.0057 18.5788 27.2368 18.9141C27.4679 19.2461 27.813 19.4121 28.272 19.4121Z" fill="#272863"/>
<path d="M33.5894 17.3711L31.7632 14.7441H32.8911L34.2095 16.7217L35.5278 14.7441H36.646L34.8149 17.3711L36.7437 20.125H35.6157L34.2095 18.0254L32.7935 20.125H31.6704L33.5894 17.3711Z" fill="#272863"/>
</g>
<path fill-rule="evenodd" clip-rule="evenodd" d="M23 27.225L6 27.225V26.225L23 26.225V27.225Z" fill="white" fill-opacity="0.05"/>
<path fill-rule="evenodd" clip-rule="evenodd" d="M42 25.225L6 25.225V24.225L42 24.225V25.225Z" fill="white" fill-opacity="0.05"/>
<path d="M13.3145 40.8114L11.8096 36.673H10.8213V35.4769H12.6462L13.7974 38.6608L16.5488 30.8668H17.7786L14.342 40.8114H13.3145Z" fill="black" fill-opacity="0.25"/>
<path d="M13.3145 39.8114L11.8096 35.673H10.8213V34.4769H12.6462L13.7974 37.6608L16.5488 29.8668H17.7786L14.342 39.8114H13.3145Z" fill="white"/>
<path d="M34.0947 35.681H36.8291V36.8978H34.0947V39.6595H32.8779V36.8978H30.1504V35.681H32.8779V32.892H34.0947V35.681Z" fill="black" fill-opacity="0.25"/>
<path d="M34.0947 34.681H36.8291V35.8978H34.0947V38.6595H32.8779V35.8978H30.1504V34.681H32.8779V31.892H34.0947V34.681Z" fill="white"/>
<path opacity="0.35" d="M39.5 6.72498H8.5C6.84315 6.72498 5.5 8.06812 5.5 9.72498V40.725C5.5 42.3818 6.84315 43.725 8.5 43.725H39.5C41.1569 43.725 42.5 42.3818 42.5 40.725V9.72498C42.5 8.06812 41.1569 6.72498 39.5 6.72498Z" stroke="url(#paint6_linear_856_283)" stroke-linecap="round" stroke-linejoin="round"/>
<defs>
<radialGradient id="paint0_radial_856_283" cx="0" cy="0" r="1" gradientUnits="userSpaceOnUse" gradientTransform="translate(39.993 44.225) scale(5.00946 2.25)">
<stop stop-color="#181818"/>
<stop offset="1" stop-color="#181818" stop-opacity="0"/>
</radialGradient>
<radialGradient id="paint1_radial_856_283" cx="0" cy="0" r="1" gradientUnits="userSpaceOnUse" gradientTransform="translate(8.00702 44.225) rotate(180) scale(5.00946 2.25)">
<stop stop-color="#181818"/>
<stop offset="1" stop-color="#181818" stop-opacity="0"/>
</radialGradient>
<linearGradient id="paint2_linear_856_283" x1="25.2093" y1="46.4928" x2="25.2093" y2="41.9746" gradientUnits="userSpaceOnUse">
<stop stop-color="#181818" stop-opacity="0"/>
<stop offset="0.5" stop-color="#181818"/>
<stop offset="1" stop-color="#181818" stop-opacity="0"/>
</linearGradient>
<linearGradient id="paint3_linear_856_283" x1="24" y1="5.69812" x2="24" y2="44.72" gradientUnits="userSpaceOnUse">
<stop stop-color="#5A5A5A"/>
<stop offset="1" stop-color="#333333"/>
</linearGradient>
<linearGradient id="paint4_linear_856_283" x1="24" y1="5.72498" x2="24" y2="44.725" gradientUnits="userSpaceOnUse">
<stop offset="0.4" stop-color="#B9C6B9"/>
<stop offset="0.6" stop-color="#0E141F"/>
</linearGradient>
<linearGradient id="paint5_linear_856_283" x1="20.4622" y1="6.17643" x2="20.4617" y2="25.2598" gradientUnits="userSpaceOnUse">
<stop stop-color="#DAE6DA" stop-opacity="0.941176"/>
<stop offset="1" stop-color="#B1BFB1"/>
</linearGradient>
<linearGradient id="paint6_linear_856_283" x1="39" y1="7.22498" x2="39" y2="43.1704" gradientUnits="userSpaceOnUse">
<stop stop-color="white"/>
<stop offset="0.0678164" stop-color="white" stop-opacity="0.235294"/>
<stop offset="0.946944" stop-color="white" stop-opacity="0.156863"/>
<stop offset="1" stop-color="white" stop-opacity="0.392157"/>
</linearGradient>
</defs>
</svg>
