<svg width="16" height="16" viewBox="0 0 16 16" fill="none" xmlns="http://www.w3.org/2000/svg">
<path fill-rule="evenodd" clip-rule="evenodd" d="M4.55398 3.29306L5.03042 3.44473C5.31355 3.53487 5.59225 3.63586 5.86594 3.74731C6.12169 3.85146 6.24459 4.14321 6.14045 4.39896C6.0363 4.65471 5.74455 4.77761 5.4888 4.67347C5.39314 4.63451 5.29681 4.59696 5.19983 4.56083L5.08164 4.9321C4.99787 5.19523 4.71665 5.34064 4.45352 5.25687C4.19039 5.1731 4.04499 4.89188 4.12876 4.62875L4.55398 3.29306ZM6.76653 4.71325C6.90939 4.47694 7.21678 4.40118 7.45309 4.54404C7.96045 4.85077 8.44295 5.19688 8.8961 5.57916C9.10717 5.75722 9.13393 6.07267 8.95588 6.28374C8.77782 6.49481 8.46237 6.52157 8.2513 6.34351C7.83817 5.99499 7.39828 5.67945 6.93574 5.39982C6.69942 5.25695 6.62367 4.94957 6.76653 4.71325ZM9.45425 6.77606C9.66313 6.59543 9.97888 6.61834 10.1595 6.82722C10.3528 7.05076 10.5378 7.28238 10.7139 7.52169C10.89 7.761 11.0562 8.00648 11.2122 8.25749C11.3579 8.49204 11.2859 8.80033 11.0514 8.94607C10.8168 9.09181 10.5085 9.01981 10.3628 8.78526C10.2206 8.55642 10.0691 8.33262 9.90853 8.11444C9.74796 7.89626 9.57931 7.6851 9.40309 7.48131C9.22247 7.27243 9.24537 6.95668 9.45425 6.77606ZM11.3733 9.56827C11.6277 9.461 11.921 9.58033 12.0282 9.83479C12.2585 10.3811 12.4455 10.9447 12.5876 11.5203C12.6537 11.7884 12.49 12.0594 12.2219 12.1255C11.9538 12.1917 11.6828 12.028 11.6167 11.7598C11.4872 11.2351 11.3167 10.7213 11.1067 10.2232C10.9995 9.96876 11.1188 9.67553 11.3733 9.56827ZM12.3359 12.8167C12.611 12.7933 12.853 12.9974 12.8764 13.2725C12.9015 13.567 12.9151 13.8631 12.9169 14.1602L12.9201 14.6602L11.5184 14.6691C11.2423 14.6709 11.017 14.4485 11.0152 14.1723C11.0135 13.8962 11.2359 13.6709 11.512 13.6692L11.9017 13.6667C11.896 13.5634 11.8888 13.4602 11.88 13.3573C11.8566 13.0821 12.0607 12.8401 12.3359 12.8167Z" fill="#555761" fill-opacity="0.5"/>
<path fill-rule="evenodd" clip-rule="evenodd" d="M5.74488 1.24627C6.00788 1.33043 6.15286 1.61187 6.0687 1.87487L2.27746 13.7225H14.5925C14.8686 13.7225 15.0925 13.9463 15.0925 14.2225C15.0925 14.4986 14.8686 14.7225 14.5925 14.7225H0.907512L5.11628 1.5701C5.20044 1.30709 5.48187 1.16211 5.74488 1.24627Z" fill="#555761"/>
</svg>
