<svg width="16" height="16" viewBox="0 0 16 16" fill="none" xmlns="http://www.w3.org/2000/svg">
<g clip-path="url(#clip0_1399_20)">
<path fill-rule="evenodd" clip-rule="evenodd" d="M3 1L13 1C14.1046 1 15 1.89543 15 3L15 13C15 14.1046 14.1046 15 13 15L3 15C1.89543 15 1 14.1046 1 13L1 3C1 1.89543 1.89543 1 3 1ZM3 2C2.44772 2 2 2.44772 2 3L2 13C2 13.5523 2.44772 14 3 14L13 14C13.5523 14 14 13.5523 14 13L14 3C14 2.44771 13.5523 2 13 2L3 2Z" fill="#555761"/>
<path fill-rule="evenodd" clip-rule="evenodd" d="M4.81803 1.98959L1.9896 4.81801L1.28249 4.11091L4.11092 1.28248L4.81803 1.98959ZM7.64645 1.98959L1.9896 7.64644L1.28249 6.93933L6.93935 1.28248L7.64645 1.98959ZM10.4749 1.98959L1.9896 10.4749L1.28249 9.76776L9.76777 1.28248L10.4749 1.98959ZM13.3033 1.98959L1.9896 13.3033L1.28249 12.5962L12.5962 1.28248L13.3033 1.98959ZM14.7175 3.4038L3.40381 14.7175L2.69671 14.0104L14.0104 2.69669L14.7175 3.4038ZM14.7175 6.23223L6.23224 14.7175L5.52513 14.0104L14.0104 5.52512L14.7175 6.23223ZM14.7175 9.06065L9.06067 14.7175L8.35356 14.0104L14.0104 8.35355L14.7175 9.06065ZM14.7175 11.8891L11.8891 14.7175L11.182 14.0104L14.0104 11.182L14.7175 11.8891Z" fill="#555761" fill-opacity="0.5"/>
</g>
<defs>
<clipPath id="clip0_1399_20">
<rect width="16" height="16" fill="white"/>
</clipPath>
</defs>
</svg>
