<svg width="16" height="16" viewBox="0 0 16 16" fill="none" xmlns="http://www.w3.org/2000/svg">
<g clip-path="url(#clip0_1398_2)">
<path d="M8.2411 1.64908V1.55908C8.2411 1.55908 8.2011 1.54408 8.1211 1.51408C8.0511 1.48408 7.9211 1.46908 7.7311 1.46908C7.4511 1.46908 7.2111 1.58908 7.0111 1.82908C6.8111 2.05908 6.6361 2.37908 6.4861 2.78908C6.3361 3.18908 6.2011 3.64408 6.0811 4.15408C5.9711 4.65408 5.8661 5.17908 5.7661 5.72908C5.6761 6.27908 5.5861 6.81408 5.4961 7.33408C5.2961 8.43408 5.0711 9.45908 4.8211 10.4091C4.5711 11.3491 4.2861 12.1691 3.9661 12.8691C3.6461 13.5791 3.2811 14.1291 2.8711 14.5191C2.4711 14.9091 2.0161 15.1041 1.5061 15.1041C0.976103 15.1041 0.596103 14.9691 0.366103 14.6991C0.136103 14.4291 0.0211029 14.1391 0.0211029 13.8291C0.0211029 13.4791 0.106103 13.2091 0.276103 13.0191C0.456103 12.8391 0.661103 12.7491 0.891103 12.7491C1.0911 12.7491 1.2361 12.8041 1.3261 12.9141C1.4261 13.0341 1.4761 13.1891 1.4761 13.3791C1.4761 13.5891 1.4411 13.7641 1.3711 13.9041C1.3111 14.0441 1.2311 14.1841 1.1311 14.3241V14.4291C1.1311 14.4291 1.1561 14.4441 1.2061 14.4741C1.2661 14.5041 1.3611 14.5191 1.4911 14.5191C1.8211 14.5191 2.1011 14.3341 2.3311 13.9641C2.5611 13.6041 2.7561 13.1141 2.9161 12.4941C3.0761 11.8741 3.2261 11.1791 3.3661 10.4091C3.5061 9.62908 3.6511 8.83408 3.8011 8.02408C3.9211 7.38408 4.0561 6.72408 4.2061 6.04408C4.3661 5.36408 4.5511 4.71408 4.7611 4.09408C4.9811 3.47408 5.2361 2.91908 5.5261 2.42908C5.8261 1.92908 6.1761 1.53408 6.5761 1.24408C6.9861 0.954082 7.4611 0.809082 8.0011 0.809082C8.3711 0.809082 8.6911 0.914082 8.9611 1.12408C9.2411 1.33408 9.3811 1.65408 9.3811 2.08408C9.3811 2.46408 9.2711 2.74908 9.0511 2.93908C8.8311 3.12908 8.6061 3.22408 8.3761 3.22408C7.9861 3.22408 7.7911 3.00408 7.7911 2.56408C7.7911 2.22408 7.9411 1.91908 8.2411 1.64908Z" fill="#555761"/>
<path d="M7.78111 12.8141C7.34111 12.8141 6.97111 12.7274 6.67111 12.5541C6.37777 12.3807 6.15777 12.1507 6.01111 11.8641C5.86444 11.5707 5.79111 11.2507 5.79111 10.9041C5.79111 10.4041 5.88444 9.96075 6.07111 9.57408C6.25777 9.18075 6.53111 8.85075 6.89111 8.58408C7.25111 8.31075 7.68444 8.10742 8.19111 7.97408C7.96444 7.79408 7.78444 7.60408 7.65111 7.40408C7.52444 7.20408 7.46111 6.93742 7.46111 6.60408C7.46111 6.30408 7.53444 6.04075 7.68111 5.81408C7.82777 5.58075 8.03444 5.39742 8.30111 5.26408C8.57444 5.13075 8.89444 5.06408 9.26111 5.06408C9.65444 5.06408 9.99444 5.12408 10.2811 5.24408C10.5744 5.36408 10.8144 5.49075 11.0011 5.62408L10.6511 6.25408C10.4778 6.14742 10.2711 6.04075 10.0311 5.93408C9.79777 5.82742 9.53777 5.77408 9.25111 5.77408C8.92444 5.77408 8.68444 5.85075 8.53111 6.00408C8.37777 6.15742 8.30111 6.35742 8.30111 6.60408C8.30111 6.77075 8.33444 6.91742 8.40111 7.04408C8.47444 7.17075 8.57444 7.29408 8.70111 7.41408C8.83444 7.52742 8.98777 7.65742 9.16111 7.80408C9.39444 7.99075 9.60444 8.19075 9.79111 8.40408C9.97777 8.61742 10.1244 8.86075 10.2311 9.13408C10.3444 9.40075 10.4011 9.71075 10.4011 10.0641C10.4011 10.4307 10.3444 10.7807 10.2311 11.1141C10.1244 11.4407 9.95777 11.7341 9.73111 11.9941C9.51111 12.2474 9.23777 12.4474 8.91111 12.5941C8.59111 12.7407 8.21444 12.8141 7.78111 12.8141ZM7.87111 12.0841C8.13111 12.0841 8.36111 12.0341 8.56111 11.9341C8.76111 11.8274 8.93111 11.6807 9.07111 11.4941C9.21777 11.3074 9.32777 11.0941 9.40111 10.8541C9.47444 10.6141 9.51111 10.3541 9.51111 10.0741C9.51111 9.80742 9.47444 9.57075 9.40111 9.36408C9.33444 9.15075 9.23777 8.96408 9.11111 8.80408C8.99111 8.63742 8.85111 8.50408 8.69111 8.40408C8.30444 8.49742 7.96111 8.65075 7.66111 8.86408C7.36111 9.07075 7.12444 9.33742 6.95111 9.66408C6.77777 9.98408 6.69111 10.3574 6.69111 10.7841C6.69111 11.0507 6.73444 11.2841 6.82111 11.4841C6.91444 11.6774 7.04777 11.8274 7.22111 11.9341C7.40111 12.0341 7.61777 12.0841 7.87111 12.0841Z" fill="#555761"/>
<path d="M12.6887 8.30408C12.8487 8.27742 13.0154 8.28408 13.1887 8.32408C13.522 8.39742 13.7687 8.55075 13.9287 8.78408C13.9554 8.82408 13.9754 8.84408 13.9887 8.84408L14.0487 8.76408C14.2087 8.57742 14.3987 8.44075 14.6187 8.35408C14.872 8.26075 15.1254 8.27075 15.3787 8.38408C15.572 8.48408 15.7087 8.61742 15.7887 8.78408C15.922 9.05075 15.9254 9.33075 15.7987 9.62408C15.7454 9.73742 15.6787 9.82408 15.5987 9.88408C15.3587 10.0574 15.132 10.0907 14.9187 9.98408C14.8787 9.96408 14.8454 9.94075 14.8187 9.91408C14.7187 9.81408 14.6787 9.68742 14.6987 9.53408C14.7387 9.23408 14.892 9.03742 15.1587 8.94408L15.2387 8.91408L15.1987 8.87408C15.0787 8.76742 14.932 8.73742 14.7587 8.78408C14.7454 8.78408 14.732 8.78742 14.7187 8.79408C14.5187 8.86742 14.3587 9.06075 14.2387 9.37408C14.172 9.54075 13.9954 10.2441 13.7087 11.4841C13.6754 11.5974 13.6587 11.6674 13.6587 11.6941C13.6254 11.9007 13.6287 12.0407 13.6687 12.1141C13.722 12.2141 13.8054 12.2841 13.9187 12.3241C13.952 12.3374 14.022 12.3441 14.1287 12.3441C14.2287 12.3441 14.302 12.3374 14.3487 12.3241C14.522 12.2707 14.6954 12.1641 14.8687 12.0041C15.0754 11.7907 15.212 11.5574 15.2787 11.3041C15.2987 11.2374 15.3254 11.2007 15.3587 11.1941C15.3854 11.1874 15.4454 11.1841 15.5387 11.1841C15.6654 11.1841 15.7387 11.1907 15.7587 11.2041C15.772 11.2174 15.7787 11.2407 15.7787 11.2741C15.7787 11.4141 15.692 11.6241 15.5187 11.9041C15.512 11.9241 15.502 11.9407 15.4887 11.9541C15.1887 12.4141 14.792 12.6974 14.2987 12.8041C14.1454 12.8307 13.972 12.8307 13.7787 12.8041C13.4387 12.7307 13.1854 12.5807 13.0187 12.3541L12.9587 12.2641L12.9287 12.2941C12.6687 12.6274 12.3754 12.8041 12.0487 12.8241C11.6687 12.8441 11.3854 12.7041 11.1987 12.4041C11.1587 12.3507 11.1287 12.2907 11.1087 12.2241C11.062 12.0774 11.0487 11.9207 11.0687 11.7541C11.1154 11.4674 11.2487 11.2707 11.4687 11.1641C11.682 11.0641 11.872 11.0607 12.0387 11.1541C12.192 11.2274 12.262 11.3607 12.2487 11.5541C12.2287 11.8207 12.1054 12.0141 11.8787 12.1341C11.8454 12.1541 11.7987 12.1741 11.7387 12.1941L11.6987 12.2041L11.7287 12.2341C11.822 12.3074 11.9287 12.3441 12.0487 12.3441C12.1354 12.3507 12.2254 12.3274 12.3187 12.2741C12.492 12.1541 12.622 11.9707 12.7087 11.7241L13.2587 9.52408C13.3054 9.28408 13.312 9.11742 13.2787 9.02408C13.2454 8.91742 13.1587 8.84075 13.0187 8.79408C12.8854 8.75408 12.7487 8.75408 12.6087 8.79408C12.4154 8.84742 12.2454 8.94742 12.0987 9.09408C11.9054 9.29408 11.7654 9.51742 11.6787 9.76408C11.6587 9.84408 11.6387 9.89408 11.6187 9.91408C11.6054 9.92742 11.5354 9.93408 11.4087 9.93408H11.2187L11.1887 9.90408C11.1687 9.88408 11.1587 9.85742 11.1587 9.82408C11.1787 9.72408 11.2187 9.61075 11.2787 9.48408C11.3387 9.34408 11.4154 9.21075 11.5087 9.08408C11.6154 8.92408 11.762 8.77408 11.9487 8.63408C11.9554 8.62742 11.9654 8.62075 11.9787 8.61408C12.1987 8.46075 12.4354 8.35742 12.6887 8.30408Z" fill="#555761" fill-opacity="0.75"/>
</g>
<defs>
<clipPath id="clip0_1398_2">
<rect width="16" height="16" fill="white"/>
</clipPath>
</defs>
</svg>
