<svg width="16" height="16" viewBox="0 0 16 16" fill="none" xmlns="http://www.w3.org/2000/svg">
<g clip-path="url(#clip0_1399_157)">
<path fill-rule="evenodd" clip-rule="evenodd" d="M2.36209 5.42193C2.09033 5.65683 2 5.87151 2 6.04365C2 6.30452 2.22447 6.6753 2.89518 7.01065C3.53598 7.33105 4.45622 7.54365 5.5 7.54365C6.57224 7.54365 7.5131 7.31934 8.15486 6.98512L8.61677 7.87205C7.80269 8.29602 6.69588 8.54365 5.5 8.54365C4.33464 8.54365 3.25488 8.30854 2.44797 7.90508C1.67096 7.51657 1 6.88735 1 6.04365C1 5.48722 1.29924 5.01882 1.70816 4.66537L2.36209 5.42193Z" fill="#555761"/>
<path fill-rule="evenodd" clip-rule="evenodd" d="M2.36209 7.42193C2.09033 7.65683 2 7.87151 2 8.04365C2 8.30452 2.22447 8.6753 2.89518 9.01065C3.53598 9.33105 4.45622 9.54365 5.5 9.54365C6.8067 9.54365 7.90257 9.21151 8.50995 8.76693L9.10059 9.57387C8.26741 10.1837 6.93993 10.5437 5.5 10.5437C4.33464 10.5437 3.25488 10.3085 2.44797 9.90508C1.67096 9.51657 1 8.88735 1 8.04365C1 7.48722 1.29924 7.01882 1.70816 6.66537L2.36209 7.42193Z" fill="#555761"/>
<path fill-rule="evenodd" clip-rule="evenodd" d="M2.39307 9.39573C2.09753 9.64017 2 9.86527 2 10.0436C2 10.3045 2.22447 10.6753 2.89518 11.0106C3.53598 11.331 4.45622 11.5436 5.5 11.5436C6.44532 11.5436 7.29179 11.3692 7.92089 11.0963C8.57249 10.8137 8.89426 10.4714 8.97623 10.2005L9.93338 10.4901C9.72445 11.1806 9.07086 11.6875 8.3188 12.0137C7.54424 12.3497 6.55875 12.5436 5.5 12.5436C4.33464 12.5436 3.25488 12.3085 2.44797 11.9051C1.67096 11.5166 1 10.8873 1 10.0436C1 9.46585 1.32209 8.98381 1.75572 8.62515L2.39307 9.39573Z" fill="#555761"/>
<path fill-rule="evenodd" clip-rule="evenodd" d="M2.39307 11.355C2.09753 11.5994 2 11.8245 2 12.0029C2 12.2637 2.22447 12.6345 2.89518 12.9699C3.53598 13.2903 4.45622 13.5029 5.5 13.5029C6.44532 13.5029 7.29179 13.3284 7.92089 13.0555C8.57249 12.7729 8.89426 12.4306 8.97623 12.1597C9.09554 11.8341 9.12891 11.6094 9.04806 11.355L10.0273 10.918C10.1016 11.5156 10.1069 11.8758 9.93338 12.4493C9.72445 13.1398 9.07086 13.6467 8.3188 13.9729C7.54424 14.3089 6.55875 14.5029 5.5 14.5029C4.33464 14.5029 3.25488 14.2678 2.44797 13.8643C1.67096 13.4758 1 12.8466 1 12.0029C1 11.4251 1.32209 10.943 1.75572 10.5844L2.39307 11.355Z" fill="#555761"/>
<path fill-rule="evenodd" clip-rule="evenodd" d="M2.44797 2.18221C3.25488 1.77875 4.33464 1.54364 5.5 1.54364C6.66536 1.54364 7.74512 1.77875 8.55203 2.18221C9.32904 2.57072 10 3.19994 10 4.04364C10 4.88734 9.32904 5.51656 8.55203 5.90507C7.74512 6.30853 6.66536 6.54364 5.5 6.54364C4.33464 6.54364 3.25488 6.30853 2.44797 5.90507C1.67096 5.51656 1 4.88734 1 4.04364C1 3.19994 1.67096 2.57072 2.44797 2.18221Z" fill="#555761"/>
<path d="M13.9572 11.8955C12.8558 12.7667 10.8519 12.0683 9.48146 10.3357C8.11098 8.60302 7.89286 6.4922 8.99425 5.62103C10.0957 4.74986 12.0995 5.44824 13.47 7.18089C14.8404 8.91355 15.0586 11.0244 13.9572 11.8955Z" fill="#555761" fill-opacity="0.5"/>
<path fill-rule="evenodd" clip-rule="evenodd" d="M10.9667 5.89668C10.2527 5.64784 9.67434 5.72061 9.30443 6.0132C8.93452 6.30578 8.73053 6.8518 8.80825 7.60391C8.88524 8.34895 9.23819 9.22215 9.87361 10.0255C10.509 10.8288 11.2775 11.3734 11.9848 11.6199C12.6988 11.8687 13.2771 11.796 13.647 11.5034C14.0169 11.2108 14.2209 10.6648 14.1432 9.91267C14.0662 9.16763 13.7132 8.29443 13.0778 7.49108C12.4424 6.68774 11.6739 6.14318 10.9667 5.89668ZM11.2958 4.95239C12.2084 5.27044 13.1271 5.94141 13.8621 6.87072C14.5972 7.80003 15.0385 8.84856 15.1379 9.80988C15.2365 10.7641 14.9988 11.7091 14.2674 12.2877C13.5359 12.8663 12.5616 12.8799 11.6557 12.5642C10.7431 12.2461 9.82435 11.5752 9.0893 10.6459C8.35425 9.71656 7.91289 8.66802 7.81355 7.7067C7.71494 6.75245 7.95258 5.80747 8.68407 5.22888C9.41555 4.6503 10.3899 4.63667 11.2958 4.95239Z" fill="#555761"/>
</g>
<defs>
<clipPath id="clip0_1399_157">
<rect width="16" height="16" fill="white"/>
</clipPath>
</defs>
</svg>
