<svg width="16" height="16" viewBox="0 0 16 16" fill="none" xmlns="http://www.w3.org/2000/svg">
<g clip-path="url(#clip0_1399_157)">
<path fill-rule="evenodd" clip-rule="evenodd" d="M2.36209 6.42193C2.09033 6.65683 2 6.87151 2 7.04365C2 7.30452 2.22447 7.6753 2.89518 8.01065C3.53598 8.33105 4.45622 8.54365 5.5 8.54365C6.57224 8.54365 7.5131 8.31935 8.15486 7.98512L8.61677 8.87205C7.80269 9.29602 6.69588 9.54365 5.5 9.54365C4.33464 9.54365 3.25488 9.30854 2.44797 8.90508C1.67096 8.51657 1 7.88735 1 7.04365C1 6.48722 1.29924 6.01882 1.70816 5.66537L2.36209 6.42193Z" fill="#555761"/>
<path fill-rule="evenodd" clip-rule="evenodd" d="M2.36209 8.42193C2.09033 8.65683 2 8.87151 2 9.04365C2 9.30452 2.22447 9.6753 2.89518 10.0107C3.53598 10.3311 4.45622 10.5437 5.5 10.5437C6.8067 10.5437 7.90257 10.2115 8.50995 9.76693L9.10059 10.5739C8.26741 11.1837 6.93993 11.5437 5.5 11.5437C4.33464 11.5437 3.25488 11.3085 2.44797 10.9051C1.67096 10.5166 1 9.88735 1 9.04365C1 8.48722 1.29924 8.01882 1.70816 7.66537L2.36209 8.42193Z" fill="#555761"/>
<path fill-rule="evenodd" clip-rule="evenodd" d="M2.39307 10.3957C2.09753 10.6402 2 10.8653 2 11.0436C2 11.3045 2.22447 11.6753 2.89518 12.0106C3.53598 12.331 4.45622 12.5436 5.5 12.5436C6.44532 12.5436 7.29179 12.3692 7.92089 12.0963C8.57249 11.8137 8.89426 11.4714 8.97623 11.2005L9.93338 11.4901C9.72445 12.1806 9.07086 12.6875 8.3188 13.0137C7.54424 13.3497 6.55875 13.5436 5.5 13.5436C4.33464 13.5436 3.25488 13.3085 2.44797 12.9051C1.67096 12.5166 1 11.8873 1 11.0436C1 10.4659 1.32209 9.98381 1.75572 9.62515L2.39307 10.3957Z" fill="#555761"/>
<path fill-rule="evenodd" clip-rule="evenodd" d="M2.44797 3.18221C3.25488 2.77875 4.33464 2.54364 5.5 2.54364C6.66536 2.54364 7.74512 2.77875 8.55203 3.18221C9.32904 3.57072 10 4.19994 10 5.04364C10 5.88734 9.32904 6.51656 8.55203 6.90507C7.74512 7.30853 6.66536 7.54364 5.5 7.54364C4.33464 7.54364 3.25488 7.30853 2.44797 6.90507C1.67096 6.51656 1 5.88734 1 5.04364C1 4.19994 1.67096 3.57072 2.44797 3.18221Z" fill="#555761"/>
<path d="M13.9572 12.8955C12.8558 13.7667 10.8519 13.0683 9.48146 11.3357C8.11098 9.60302 7.89286 7.4922 8.99425 6.62103C10.0957 5.74986 12.0995 6.44824 13.47 8.18089C14.8404 9.91355 15.0586 12.0244 13.9572 12.8955Z" fill="#555761" fill-opacity="0.5"/>
<path fill-rule="evenodd" clip-rule="evenodd" d="M10.9667 6.89668C10.2527 6.64784 9.67434 6.72061 9.30443 7.0132C8.93452 7.30578 8.73053 7.8518 8.80825 8.60391C8.88524 9.34895 9.23819 10.2222 9.87361 11.0255C10.509 11.8288 11.2775 12.3734 11.9848 12.6199C12.6988 12.8687 13.2771 12.796 13.647 12.5034C14.0169 12.2108 14.2209 11.6648 14.1432 10.9127C14.0662 10.1676 13.7132 9.29443 13.0778 8.49108C12.4424 7.68774 11.6739 7.14318 10.9667 6.89668ZM11.2958 5.95239C12.2084 6.27044 13.1271 6.94141 13.8621 7.87072C14.5972 8.80003 15.0385 9.84856 15.1379 10.8099C15.2365 11.7641 14.9988 12.7091 14.2674 13.2877C13.5359 13.8663 12.5616 13.8799 11.6557 13.5642C10.7431 13.2461 9.82435 12.5752 9.0893 11.6459C8.35425 10.7166 7.91289 9.66802 7.81355 8.7067C7.71494 7.75245 7.95258 6.80747 8.68407 6.22888C9.41555 5.6503 10.3899 5.63667 11.2958 5.95239Z" fill="#555761"/>
</g>
<defs>
<clipPath id="clip0_1399_157">
<rect width="16" height="16" fill="white"/>
</clipPath>
</defs>
</svg>
