<svg width="16" height="16" viewBox="0 0 16 16" fill="none" xmlns="http://www.w3.org/2000/svg">
<path fill-rule="evenodd" clip-rule="evenodd" d="M5.67251 1.62861C5.82437 1.24895 6.19208 1 6.60099 1H10.7073C11.551 1 12.0155 1.98031 11.4813 2.63324L8.31759 6.49999H11.9595C12.876 6.49999 13.3097 7.63019 12.6285 8.24328L5.55936 14.6055C4.73838 15.3443 3.50201 14.4029 3.99597 13.415L5.95345 9.5L6.84788 9.94721L4.8904 13.8622L11.9595 7.49999H8.31759C7.47397 7.49999 7.00942 6.51968 7.54364 5.86675L10.7073 2L6.60099 2L4.00099 8.49999L5.95346 8.5C6.69684 8.5 7.18033 9.28231 6.84788 9.94721L5.95345 9.5L4.00098 9.49999C3.29352 9.49999 2.80976 8.78546 3.07251 8.1286L5.67251 1.62861Z" fill="#555761"/>
</svg>
