<svg width="16" height="16" viewBox="0 0 16 16" fill="none" xmlns="http://www.w3.org/2000/svg">
<path fill-rule="evenodd" clip-rule="evenodd" d="M1 1H2.4V13.5H15V15H1V1Z" fill="#555761"/>
<path fill-rule="evenodd" clip-rule="evenodd" d="M1.55922 9.35696C1.43195 9.57202 1.25321 9.81813 1.00005 9.94721L1.27109 9C1.27109 9 0.997181 8.25864 1.03524 8.16321C1.17831 7.80445 1.31909 7.39926 1.46988 6.9653C1.56228 6.69938 1.65843 6.42265 1.76117 6.13917C2.02222 5.41884 2.32065 4.67156 2.67659 4.09936C3.01398 3.55696 3.50937 3 4.213 3C4.64901 3 4.97979 3.28365 5.21061 3.56768C5.45085 3.86331 5.66625 4.26077 5.86433 4.69562C6.20417 5.44168 6.53592 6.39717 6.86788 7.35329C6.9234 7.51321 6.97893 7.67314 7.03451 7.83211C7.42961 8.96233 7.82862 10.0496 8.26238 10.8525C8.47928 11.2539 8.68991 11.5554 8.89155 11.7511C9.09148 11.9451 9.24477 12 9.36134 12C9.47407 12 9.61538 11.9487 9.79734 11.7614C9.98325 11.57 10.1747 11.2726 10.3702 10.8712C10.7617 10.0678 11.1078 8.98262 11.4691 7.84586L11.4775 7.81924C11.8287 6.71408 12.1953 5.56076 12.6226 4.68375C12.8382 4.2413 13.0848 3.83565 13.377 3.53481C13.6733 3.22991 14.0504 3 14.5097 3C14.7805 3 15 3.22386 15 3.5C15 3.77614 14.7805 4 14.5097 4C14.397 4 14.2556 4.05134 14.0737 4.23862C13.8878 4.42998 13.6964 4.72745 13.5008 5.12875C13.1093 5.93219 12.7632 7.01738 12.4019 8.15414L12.3935 8.18076C12.0423 9.28592 11.6758 10.4392 11.2484 11.3163C11.0328 11.7587 10.7863 12.1644 10.494 12.4652C10.1977 12.7701 9.82065 13 9.36134 13C8.90587 13 8.52288 12.7737 8.21557 12.4755C7.90997 12.179 7.64242 11.7773 7.40347 11.335C6.92555 10.4504 6.50226 9.28767 6.11081 8.1679C6.05345 8.00382 5.99679 7.84072 5.9407 7.67927C5.6069 6.71839 5.29344 5.81607 4.97496 5.11689C4.7887 4.70799 4.61529 4.40233 4.45555 4.20576C4.37682 4.10888 4.31349 4.05373 4.26822 4.02482C4.24667 4.01106 4.23192 4.00498 4.2238 4.00235C4.21645 3.99997 4.21302 4 4.21302 4C4.0586 4 3.81848 4.13053 3.50467 4.63501C3.20941 5.10968 2.94091 5.76865 2.681 6.48582C2.58931 6.73882 2.49767 7.00227 2.40672 7.26371C2.24914 7.71674 2.09365 8.16373 1.94363 8.53991C1.8234 8.8414 1.69623 9.12544 1.55922 9.35696Z" fill="#555761" fill-opacity="0.75"/>
<path fill-rule="evenodd" clip-rule="evenodd" d="M14.8572 1.14284C15.0476 1.33329 15.0476 1.64208 14.8572 1.83253L14.1988 2.4909C14.0083 2.68136 13.6995 2.68136 13.5091 2.4909C13.3186 2.30045 13.3186 1.99167 13.5091 1.80121L14.1675 1.14284C14.3579 0.952387 14.6667 0.952387 14.8572 1.14284ZM12.882 3.11796C13.0725 3.30841 13.0725 3.6172 12.882 3.80765L11.5653 5.1244C11.3748 5.31485 11.0661 5.31485 10.8756 5.1244C10.6852 4.93394 10.6852 4.62516 10.8756 4.43471L12.1923 3.11796C12.3828 2.92751 12.6916 2.92751 12.882 3.11796ZM10.2485 5.75145C10.439 5.94191 10.439 6.25069 10.2485 6.44114L8.9318 7.75789C8.74135 7.94834 8.43256 7.94834 8.24211 7.75789C8.05166 7.56744 8.05166 7.25865 8.24211 7.0682L9.55886 5.75145C9.74931 5.561 10.0581 5.561 10.2485 5.75145ZM7.61505 8.38495C7.8055 8.5754 7.8055 8.88419 7.61505 9.07464L6.2983 10.3914C6.10785 10.5818 5.79907 10.5818 5.60861 10.3914C5.41816 10.2009 5.41816 9.89215 5.60861 9.7017L6.92536 8.38495C7.11581 8.1945 7.4246 8.1945 7.61505 8.38495ZM4.98156 11.0184C5.17201 11.2089 5.17201 11.5177 4.98156 11.7081L3.66481 13.0249C3.47436 13.2153 3.16557 13.2153 2.97512 13.0249C2.78467 12.8344 2.78467 12.5256 2.97512 12.3352L4.29187 11.0184C4.48232 10.828 4.7911 10.828 4.98156 11.0184ZM2.34806 13.6519C2.53852 13.8424 2.53852 14.1512 2.34806 14.3416L1.68969 15L1 14.3103L1.65837 13.6519C1.84883 13.4615 2.15761 13.4615 2.34806 13.6519Z" fill="#555761" fill-opacity="0.5"/>
</svg>
