<svg width="16" height="16" viewBox="0 0 16 16" fill="none" xmlns="http://www.w3.org/2000/svg">
<path fill-rule="evenodd" clip-rule="evenodd" d="M11.5355 2.34315L2.34314 11.5355C1.95262 11.9261 1.95262 12.5592 2.34314 12.9498L3.05025 13.6569C3.44078 14.0474 4.07394 14.0474 4.46447 13.6569L13.6569 4.46447C14.0474 4.07395 14.0474 3.44078 13.6569 3.05026L12.9497 2.34315C12.5592 1.95263 11.9261 1.95263 11.5355 2.34315ZM1.63604 10.8284C0.85499 11.6095 0.85499 12.8758 1.63604 13.6569L2.34314 14.364C3.12419 15.145 4.39052 15.145 5.17157 14.364L14.364 5.17158C15.145 4.39053 15.145 3.1242 14.364 2.34315L13.6569 1.63604C12.8758 0.854995 11.6095 0.854995 10.8284 1.63604L1.63604 10.8284Z" fill="#555761"/>
<path d="M6.23223 10.4749L6.93934 11.182L7.64644 10.4749L6.93934 9.76779L6.23223 10.4749Z" fill="#555761" fill-opacity="0.5"/>
<path d="M9.76776 6.93936L10.4749 7.64647L11.182 6.93936L10.4749 6.23225L9.76776 6.93936Z" fill="#555761" fill-opacity="0.5"/>
<path fill-rule="evenodd" clip-rule="evenodd" d="M4.46446 10.8284L3.75735 11.5356L5.18356 12.9618L5.87868 12.2427L4.46446 10.8284ZM12.951 5.17284L11.5355 3.75738L10.8284 4.46449L12.2426 5.8787L12.951 5.17284ZM9.41421 8.70713L8 7.29291L7.29289 8.00002L8.7071 9.41423L9.41421 8.70713Z" fill="#555761"/>
</svg>
