<svg width="16" height="16" viewBox="0 0 16 16" fill="none" xmlns="http://www.w3.org/2000/svg">
<path d="M7 2H9C9.55228 2 10 2.44772 10 3V5H11V3C11 1.89543 10.1046 1 9 1H7C5.89543 1 5 1.89543 5 3V5H6V3C6 2.44772 6.44772 2 7 2Z" fill="#555761"/>
<path fill-rule="evenodd" clip-rule="evenodd" d="M10 14.6251C12.0487 13.825 13.5 11.832 13.5 9.5C13.5 6.46243 11.0376 4 8 4C4.96243 4 2.5 6.46243 2.5 9.5C2.5 11.832 3.95132 13.825 6 14.6251H10ZM9.67044 7.35261C10.6377 7.18725 11.2384 7.08455 10.4797 6.32586C9.04983 4.89599 6.60945 5.0181 5.02896 6.59859C3.44846 8.17908 3.32636 10.6195 4.75623 12.0493C5.52015 12.8132 5.63728 12.1807 5.82169 11.1847C5.98245 10.3165 6.19435 9.17217 6.93045 8.43607C7.67233 7.6942 8.81479 7.49888 9.67044 7.35261Z" fill="#555761"/>
</svg>
