<svg width="16" height="16" viewBox="0 0 16 16" fill="none" xmlns="http://www.w3.org/2000/svg">
<path fill-rule="evenodd" clip-rule="evenodd" d="M13 6C13 7.38649 12.4343 8.64274 11.5237 9.54737C11.1551 9.91347 11 10.2483 11 10.5C11 11.6046 10.1046 12.5 9 12.5H7C5.89543 12.5 5 11.6046 5 10.5C5 10.2483 4.84489 9.91347 4.47634 9.54737C3.56566 8.64274 3 7.38649 3 6C3 3.23858 5.23858 1 8 1C10.7614 1 13 3.23858 13 6ZM10.8189 8.8379C10.367 9.28682 10 9.86301 10 10.5C10 11.0523 9.55228 11.5 9 11.5H7C6.44772 11.5 6 11.0523 6 10.5C6 9.86301 5.633 9.28682 5.18108 8.8379C4.45164 8.11331 4 7.1094 4 6C4 3.79086 5.79086 2 8 2C10.2091 2 12 3.79086 12 6C12 7.1094 11.5484 8.11331 10.8189 8.8379Z" fill="#555761"/>
<path fill-rule="evenodd" clip-rule="evenodd" d="M7.1099 7L7.1099 7L7.99029 11.4019C7.99625 11.4317 7.99942 11.4615 8 11.4908C8.00057 11.4615 8.00374 11.4317 8.00971 11.4019L8.89009 7H7.1099ZM8 11.5103C8.00452 11.7398 8.16758 11.9434 8.40194 11.9903C8.67272 12.0444 8.93613 11.8688 8.99029 11.5981L9.87067 7.19612C9.99443 6.57732 9.52114 6 8.89009 6H7.1099C6.47885 6 6.00556 6.57733 6.12932 7.19612L7.00971 11.5981C7.06386 11.8688 7.32727 12.0444 7.59805 11.9903C7.83241 11.9434 7.99548 11.7398 8 11.5103Z" fill="#555761" fill-opacity="0.5"/>
<path d="M10.1213 3.87868C11.2929 5.05025 8.67157 4.32843 7.5 5.5C6.32843 6.67157 7.05025 9.29289 5.87868 8.12132C4.7071 6.94975 4.7071 5.05025 5.87868 3.87868C7.05025 2.70711 8.94974 2.70711 10.1213 3.87868Z" fill="#555761" fill-opacity="0.1"/>
<path fill-rule="evenodd" clip-rule="evenodd" d="M6 13.5C6 13.2239 6.22386 13 6.5 13H9.5C9.77614 13 10 13.2239 10 13.5C10 13.7761 9.77614 14 9.5 14H6.5C6.22386 14 6 13.7761 6 13.5Z" fill="#555761"/>
<path fill-rule="evenodd" clip-rule="evenodd" d="M6.5 15C6.5 14.7239 6.72386 14.5 7 14.5H9C9.27614 14.5 9.5 14.7239 9.5 15C9.5 15.2761 9.27614 15.5 9 15.5H7C6.72386 15.5 6.5 15.2761 6.5 15Z" fill="#555761"/>
</svg>
