<svg width="16" height="16" viewBox="0 0 16 16" fill="none" xmlns="http://www.w3.org/2000/svg">
<path fill-rule="evenodd" clip-rule="evenodd" d="M4.87726 2C3.61728 2 2.76508 2.77631 2.32448 3.65752C1.60947 5.08755 2.20326 6.36464 3.111 7.3774C3.56035 7.87874 4.06427 8.28561 4.45998 8.56873C4.6289 8.68959 4.77632 8.78663 4.88885 8.85763C4.98054 8.8048 5.095 8.73634 5.22543 8.65308C5.57539 8.42971 6.03345 8.1042 6.47361 7.69339C7.37331 6.85366 8.09177 5.76232 7.88407 4.51612C7.671 3.2377 6.43508 2 4.87726 2ZM3.30304 8.93938C2.99851 8.68723 2.67316 8.38717 2.36633 8.04484C1.34834 6.90907 0.442128 5.18616 1.43005 3.21031C1.98945 2.0915 3.13726 1 4.87726 1C6.96243 1 8.58353 2.63012 8.87046 4.35172C9.16276 6.1055 8.13122 7.51416 7.15593 8.42444C6.94569 8.62066 6.73307 8.79862 6.52862 8.95722C6.73078 9.02135 6.87727 9.21052 6.87727 9.43391C6.87727 9.71005 6.65341 9.93391 6.37727 9.93391L5.63735 9.93391C5.66554 10.0106 5.69372 10.0915 5.72096 10.1755C5.88794 10.6905 6.06435 11.4538 5.85161 12.092C5.59898 12.8499 5.11183 13.3084 4.77102 13.6291C4.71066 13.6859 4.65488 13.7384 4.60582 13.7875C4.43175 13.9615 4.3448 14.0812 4.30473 14.2014C4.26917 14.3081 4.2514 14.4752 4.35161 14.7758C4.43893 15.0378 4.29735 15.3209 4.03538 15.4083C3.77341 15.4956 3.49025 15.354 3.40292 15.092C3.25313 14.6426 3.23536 14.2472 3.35605 13.8852C3.47223 13.5366 3.69778 13.2813 3.89871 13.0804C3.97311 13.006 4.04609 12.9362 4.11695 12.8685C4.4498 12.5504 4.73586 12.277 4.90292 11.7758C5.00503 11.4695 4.93144 10.9828 4.76971 10.4839C4.70067 10.271 4.62355 10.0793 4.56002 9.93392L3.37727 9.93391C3.10112 9.93391 2.87727 9.71005 2.87727 9.43391C2.87727 9.18299 3.0621 8.97524 3.30304 8.93938Z" fill="#555761"/>
<path d="M11 6C11 4.89543 11.8954 4 13 4V4C14.1046 4 15 4.89543 15 6V13C15 13.9428 15 14.4142 14.7071 14.7071C14.4142 15 13.9428 15 13 15V15C12.0572 15 11.5858 15 11.2929 14.7071C11 14.4142 11 13.9428 11 13V6Z" fill="#555761"/>
<path fill-rule="evenodd" clip-rule="evenodd" d="M11.5 3C11.5 2.72386 11.7239 2.5 12 2.5H14C14.2761 2.5 14.5 2.72386 14.5 3C14.5 3.27614 14.2761 3.5 14 3.5H13.5V4.5C13.5 4.77614 13.2761 5 13 5C12.7239 5 12.5 4.77614 12.5 4.5V3.5H12C11.7239 3.5 11.5 3.27614 11.5 3Z" fill="#555761"/>
<path d="M4.46459 4.39277C3.67326 5.1841 4.22835 7.02222 3.43702 6.23088C2.64569 5.43955 2.64569 4.15654 3.43702 3.36521C4.22836 2.57388 5.51136 2.57388 6.30269 3.36521C7.09403 4.15654 5.25592 3.60144 4.46459 4.39277Z" fill="#555761" fill-opacity="0.25"/>
</svg>
