<svg width="16" height="16" viewBox="0 0 16 16" fill="none" xmlns="http://www.w3.org/2000/svg">
<g clip-path="url(#clip0_1396_2)">
<circle cx="8" cy="8" r="1" fill="#555761"/>
<path fill-rule="evenodd" clip-rule="evenodd" d="M13.3437 11.0405C11.9251 11.6484 10.0352 12 8 12C5.96482 12 4.07486 11.6484 2.65633 11.0405C1.94885 10.7373 1.31243 10.3505 0.838347 9.87017C0.360026 9.38551 0 8.75238 0 8C0 7.24762 0.360026 6.61449 0.838347 6.12983C1.31243 5.64947 1.94885 5.26274 2.65633 4.95953C4.07486 4.3516 5.96482 4 8 4C10.0352 4 11.9251 4.3516 13.3437 4.95953C14.0512 5.26274 14.6876 5.64947 15.1617 6.12983C15.64 6.61449 16 7.24762 16 8C16 8.75238 15.64 9.38551 15.1617 9.87017C14.6876 10.3505 14.0512 10.7373 13.3437 11.0405ZM8 11C11.866 11 15 9.65685 15 8C15 6.34315 11.866 5 8 5C4.13401 5 1 6.34315 1 8C1 9.65685 4.13401 11 8 11Z" fill="#555761" fill-opacity="0.5"/>
<path fill-rule="evenodd" clip-rule="evenodd" d="M8.03872 14.148C6.80297 13.2235 5.5535 11.7625 4.53591 10C3.51832 8.23749 2.87783 6.42494 2.69506 4.89249C2.6039 4.12819 2.6206 3.38367 2.79957 2.73292C2.98014 2.07635 3.34843 1.448 4.00001 1.07181C4.65159 0.695619 5.37991 0.690845 6.0388 0.862753C6.69185 1.03314 7.34497 1.39093 7.9613 1.85203C9.19705 2.77654 10.4465 4.23749 11.4641 6.00001C12.4817 7.76253 13.1222 9.57508 13.305 11.1075C13.3961 11.8718 13.3794 12.6164 13.2005 13.2671C13.0199 13.9237 12.6516 14.552 12 14.9282C11.3484 15.3044 10.6201 15.3092 9.96122 15.1373C9.30817 14.9669 8.65505 14.6091 8.03872 14.148ZM5.40193 9.50001C7.33493 12.8481 10.0651 14.8906 11.5 14.0622C12.9349 13.2338 12.5311 9.84806 10.5981 6.50001C8.66509 3.15196 5.93489 1.10941 4.50001 1.93783C3.06513 2.76626 3.46894 6.15196 5.40193 9.50001Z" fill="#555761" fill-opacity="0.75"/>
<path fill-rule="evenodd" clip-rule="evenodd" d="M2.69506 11.1075C2.87783 9.57508 3.51832 7.76253 4.53591 6.00001C5.5535 4.23749 6.80297 2.77654 8.03872 1.85203C8.65505 1.39093 9.30817 1.03313 9.96122 0.862752C10.6201 0.690845 11.3484 0.695619 12 1.07181C12.6516 1.448 13.0199 2.07635 13.2005 2.73292C13.3794 3.38367 13.3961 4.12819 13.305 4.89249C13.1222 6.42494 12.4817 8.23749 11.4641 10C10.4465 11.7625 9.19705 13.2235 7.9613 14.148C7.34497 14.6091 6.69185 14.9669 6.0388 15.1373C5.37991 15.3092 4.65159 15.3044 4.00001 14.9282C3.34843 14.552 2.98014 13.9237 2.79957 13.2671C2.6206 12.6164 2.6039 11.8718 2.69506 11.1075ZM5.40193 6.50001C3.46894 9.84806 3.06513 13.2338 4.50001 14.0622C5.93489 14.8906 8.66509 12.8481 10.5981 9.50001C12.5311 6.15196 12.9349 2.76626 11.5 1.93783C10.0651 1.10941 7.33493 3.15196 5.40193 6.50001Z" fill="#555761"/>
</g>
<defs>
<clipPath id="clip0_1396_2">
<rect width="16" height="16" fill="white"/>
</clipPath>
</defs>
</svg>
