<svg width="16" height="16" viewBox="0 0 16 16" fill="none" xmlns="http://www.w3.org/2000/svg">
<path d="M2.75334 9.53383L1.54624 9.77394L1.74133 10.7547L2.94843 10.5146C3.21926 10.4607 3.39515 10.1975 3.34127 9.92668C3.2874 9.65584 3.02417 9.47996 2.75334 9.53383Z" fill="#555761" fill-opacity="0.5"/>
<path d="M3.34098 6.52897L2.20392 6.05799L1.82123 6.98187L2.95829 7.45285C3.21342 7.55853 3.5059 7.43738 3.61158 7.18225C3.71725 6.92713 3.5961 6.63465 3.34098 6.52897Z" fill="#555761" fill-opacity="0.5"/>
<path d="M5.49899 4.357L4.81523 3.33367L3.98376 3.88924L4.66752 4.91257C4.82094 5.14217 5.13144 5.20394 5.36104 5.05052C5.59065 4.8971 5.65241 4.5866 5.49899 4.357Z" fill="#555761" fill-opacity="0.5"/>
<path d="M11.3325 4.91257L12.0162 3.88924L11.1848 3.33367L10.501 4.357C10.3476 4.5866 10.4094 4.8971 10.639 5.05052C10.8686 5.20394 11.1791 5.14217 11.3325 4.91257Z" fill="#555761" fill-opacity="0.5"/>
<path d="M13.0417 7.45285L14.1788 6.98187L13.7961 6.05799L12.659 6.52897C12.4039 6.63465 12.2828 6.92713 12.3884 7.18225C12.4941 7.43738 12.7866 7.55853 13.0417 7.45285Z" fill="#555761" fill-opacity="0.5"/>
<path fill-rule="evenodd" clip-rule="evenodd" d="M8 1.5C6.51664 1.5 5.0666 1.93987 3.83323 2.76398C2.59986 3.58809 1.63856 4.75943 1.07091 6.12987C0.50325 7.50032 0.354725 9.00832 0.644114 10.4632C0.933503 11.918 1.64781 13.2544 2.6967 14.3033C2.89196 14.4986 3.20855 14.4986 3.40381 14.3033C3.59907 14.108 3.59907 13.7915 3.40381 13.5962C2.61305 12.8054 2.04171 11.8261 1.74133 10.7547L1.54624 9.77394C1.43356 8.83438 1.52742 7.88139 1.82123 6.98187L2.20392 6.05799C2.63222 5.21417 3.23972 4.47393 3.98376 3.88924L4.81523 3.33367C5.64015 2.87002 6.55652 2.59204 7.5 2.51926L8.5 2.51926C9.44349 2.59204 10.3599 2.87002 11.1848 3.33367L12.0162 3.88924C12.7603 4.47393 13.3678 5.21417 13.7961 6.05799L14.1788 6.98187C14.4726 7.88139 14.5664 8.83438 14.4538 9.77394L14.2587 10.7547C13.9583 11.8261 13.387 12.8054 12.5962 13.5962C12.4009 13.7915 12.4009 14.108 12.5962 14.3033C12.7915 14.4986 13.108 14.4986 13.3033 14.3033C14.3522 13.2544 15.0665 11.918 15.3559 10.4632C15.6453 9.00832 15.4968 7.50032 14.9291 6.12987C14.3614 4.75943 13.4001 3.58809 12.1668 2.76398C10.9334 1.93987 9.48336 1.5 8 1.5Z" fill="#555761"/>
<path d="M13.0516 10.5146L14.2587 10.7547L14.4538 9.77394L13.2467 9.53383C12.9758 9.47996 12.7126 9.65584 12.6587 9.92668C12.6049 10.1975 12.7807 10.4607 13.0516 10.5146Z" fill="#555761" fill-opacity="0.5"/>
<path d="M8.5 3.75V2.51926L7.5 2.51926V3.75C7.5 4.02614 7.72386 4.25 8 4.25C8.27615 4.25 8.5 4.02614 8.5 3.75Z" fill="#555761" fill-opacity="0.5"/>
<path d="M4.00185 12.4872L3.07418 13.296L3.38281 14.3242L4.65902 13.241C4.86716 13.0595 4.88878 12.7437 4.70731 12.5355C4.52584 12.3274 4.20999 12.3058 4.00185 12.4872Z" fill="#555761"/>
<path d="M12.0013 12.4872L12.929 13.296L12.6203 14.3242L11.3441 13.241C11.136 13.0595 11.1144 12.7437 11.2958 12.5355C11.4773 12.3274 11.7932 12.3058 12.0013 12.4872Z" fill="#555761"/>
<circle cx="8.04532" cy="9.02013" r="1.53464" transform="rotate(45 8.04532 9.02013)" fill="#555761" fill-opacity="0.25"/>
<circle cx="8.04533" cy="9.02008" r="1" transform="rotate(45 8.04533 9.02008)" fill="#555761"/>
<path fill-rule="evenodd" clip-rule="evenodd" d="M11.913 5.15172C12.1083 5.34698 12.1083 5.66357 11.913 5.85883L9.81309 7.9594C9.61783 8.15467 9.30125 8.15467 9.10599 7.95941C8.91072 7.76414 8.91072 7.44756 9.10599 7.2523L11.2059 5.15172C11.4012 4.95646 11.7178 4.95646 11.913 5.15172ZM6.98467 10.0807C7.17993 10.276 7.17993 10.5926 6.98467 10.7878L6.63111 11.1414C6.43585 11.3366 6.11927 11.3366 5.92401 11.1414C5.72875 10.9461 5.72874 10.6295 5.92401 10.4343L6.27756 10.0807C6.47282 9.88546 6.7894 9.88546 6.98467 10.0807Z" fill="#555761"/>
</svg>
