<svg width="16" height="16" viewBox="0 0 16 16" fill="none" xmlns="http://www.w3.org/2000/svg">
<path d="M16 8C16 7.47471 15.8965 6.95457 15.6955 6.46927C15.4945 5.98396 15.1999 5.54301 14.8284 5.17157C14.457 4.80014 14.016 4.5055 13.5307 4.30448C13.0454 4.10346 12.5253 4 12 4L12 8H16Z" fill="#555761" fill-opacity="0.5"/>
<path fill-rule="evenodd" clip-rule="evenodd" d="M12 11C13.6569 11 15 9.65685 15 8C15 6.34315 13.6569 5 12 5C10.3431 5 9 6.34315 9 8C9 9.65685 10.3431 11 12 11ZM12 12C14.2091 12 16 10.2091 16 8C16 5.79086 14.2091 4 12 4C9.79086 4 8 5.79086 8 8C8 10.2091 9.79086 12 12 12Z" fill="#555761"/>
<path d="M15.4919 6.049C15.7998 6.60007 15.9729 7.21618 15.9971 7.84696C16.0212 8.47773 15.8957 9.10527 15.6309 9.67827L12 8L15.4919 6.049Z" fill="#555761"/>
<path d="M9 13.5074V15H1.64241V13.5074H9ZM8.56336 1V2.49835H1.51694V1H8.56336ZM6.87202 7.75703V8.23719L2.01882 15H1V13.7967L5.24592 7.99422L1 2.22066V1H2.01882L6.87202 7.75703Z" fill="#555761"/>
</svg>
