<svg width="16" height="16" viewBox="0 0 16 16" fill="none" xmlns="http://www.w3.org/2000/svg">
<path fill-rule="evenodd" clip-rule="evenodd" d="M5.5 9.14906L5.0721 9.44753C4.42198 9.901 4 10.6513 4 11.5C4 12.8807 5.11929 14 6.5 14C7.88071 14 9 12.8807 9 11.5C9 10.6513 8.57802 9.901 7.9279 9.44753L7.5 9.14906C7.5 9.14906 7.5 7.27521 7.5 6.07453C7.5 4.87385 7.5 3 7.5 3C7.5 2.44772 7.05228 2 6.5 2C5.94772 2 5.5 2.44772 5.5 3C5.5 3 5.5 4.87385 5.5 6.07453C5.5 7.27521 5.5 9.14906 5.5 9.14906ZM4.5 3C4.5 1.89543 5.39543 1 6.5 1C7.60457 1 8.5 1.89543 8.5 3V8.62734C9.40674 9.25982 10 10.3106 10 11.5C10 13.433 8.433 15 6.5 15C4.567 15 3 13.433 3 11.5C3 10.3106 3.59326 9.25982 4.5 8.62734V3Z" fill="#555761"/>
<path d="M5.5 9.14906L5.0721 9.44753C4.42198 9.901 4 10.6513 4 11.5C4 12.8807 5.11929 14 6.5 14C7.88071 14 9 12.8807 9 11.5C9 10.6513 8.57802 9.901 7.9279 9.44753L7.5 9.14906V6.07453C7.5 5.5 5.5 5.5 5.5 6.07453V9.14906Z" fill="#555761" fill-opacity="0.25"/>
<path fill-rule="evenodd" clip-rule="evenodd" d="M9.5 3C9.5 2.72386 9.72386 2.5 10 2.5H12C12.2761 2.5 12.5 2.72386 12.5 3C12.5 3.27614 12.2761 3.5 12 3.5H10C9.72386 3.5 9.5 3.27614 9.5 3ZM9.5 5.5C9.5 5.22386 9.72386 5 10 5H12C12.2761 5 12.5 5.22386 12.5 5.5C12.5 5.77614 12.2761 6 12 6H10C9.72386 6 9.5 5.77614 9.5 5.5ZM9.5 8C9.5 7.72386 9.72386 7.5 10 7.5H12C12.2761 7.5 12.5 7.72386 12.5 8C12.5 8.27614 12.2761 8.5 12 8.5H10C9.72386 8.5 9.5 8.27614 9.5 8Z" fill="#555761" fill-opacity="0.75"/>
</svg>
