<svg width="24" height="25" viewBox="0 0 24 25" fill="none" xmlns="http://www.w3.org/2000/svg">
<g opacity="0.4">
<path d="M23 20.225H20.1052V23.225H23V20.225Z" fill="url(#paint0_radial_856_301)"/>
<path d="M1.00004 23.225H3.89478V20.225H1.00004V23.225Z" fill="url(#paint1_radial_856_301)"/>
<path d="M20.1053 20.225H3.89478V23.225H20.1053V20.225Z" fill="url(#paint2_linear_856_301)"/>
</g>
<path d="M19.5 2.72498H4.5C3.39543 2.72498 2.5 3.62041 2.5 4.72498V19.725C2.5 20.8295 3.39543 21.725 4.5 21.725H19.5C20.6046 21.725 21.5 20.8295 21.5 19.725V4.72498C21.5 3.62041 20.6046 2.72498 19.5 2.72498Z" fill="url(#paint3_linear_856_301)" stroke="url(#paint4_linear_856_301)" stroke-opacity="0.5" stroke-width="0.999998"/>
<path d="M3 4.72498C3 3.89655 3.67157 3.22498 4.5 3.22498H19.5C20.3284 3.22498 21 3.89655 21 4.72498V12.225H3V4.72498Z" fill="url(#paint5_linear_856_301)"/>
<path fill-rule="evenodd" clip-rule="evenodd" d="M21 13.225H3V12.225H21V13.225Z" fill="#2A2A2A"/>
<path fill-rule="evenodd" clip-rule="evenodd" d="M11 21.225V12.225H12V21.225H11Z" fill="#2A2A2A"/>
<path fill-rule="evenodd" clip-rule="evenodd" d="M13 14.225H20V13.225H12V21.225H13V14.225Z" fill="white" fill-opacity="0.05"/>
<g opacity="0.8">
<path d="M4.74048 11.1664C4.60962 11.1664 4.48853 11.1527 4.3772 11.1254C4.26587 11.098 4.15845 11.057 4.05493 11.0023V10.0736C4.14282 10.1107 4.22974 10.1439 4.31567 10.1732C4.40356 10.2025 4.47485 10.2172 4.52954 10.2172C4.62329 10.2172 4.68872 10.1918 4.72583 10.141C4.76294 10.0922 4.78149 10.0199 4.78149 9.92419V6.30603C4.78149 6.03845 4.83228 5.82166 4.93384 5.65564C5.03735 5.48767 5.18091 5.36462 5.3645 5.2865C5.5481 5.20642 5.76196 5.16638 6.0061 5.16638C6.14087 5.16638 6.26489 5.18005 6.37817 5.2074C6.49146 5.23279 6.60181 5.27283 6.70923 5.32751V6.25623C6.61938 6.22107 6.52759 6.18884 6.43384 6.15955C6.34204 6.1283 6.26099 6.11267 6.19067 6.11267C6.13794 6.11267 6.09302 6.12341 6.05591 6.1449C6.0188 6.16443 5.99048 6.19666 5.97095 6.24158C5.95337 6.28455 5.94458 6.34216 5.94458 6.41443V10.0238C5.94458 10.4242 5.83423 10.7142 5.61353 10.8939C5.39478 11.0756 5.10376 11.1664 4.74048 11.1664Z" fill="#272863"/>
<path d="M9.77881 9.09436C9.82861 9.09436 9.88501 9.08777 9.948 9.07458C10.0125 9.05994 10.0696 9.04089 10.1194 9.01746V9.60852C10.0505 9.651 9.95532 9.68835 9.83374 9.72058C9.71362 9.75281 9.58691 9.76892 9.45361 9.76892C9.19141 9.76892 9.00171 9.69934 8.88452 9.56018C8.7688 9.41956 8.71094 9.21667 8.71094 8.95154V7.87488H8.15723V9.72498H7.2981V7.87488H6.76855V7.51013L7.20801 7.23547H10.1194V7.87488H9.57007V8.85706C9.57007 8.94202 9.59058 9.00281 9.63159 9.03943C9.67261 9.07605 9.72168 9.09436 9.77881 9.09436Z" fill="#272863"/>
<path d="M11.1191 8.45496L10.3589 7.23547H11.3345L11.7124 7.9342L12.0991 7.23547H13.0769L12.2969 8.45496L13.1077 9.72498H12.1321L11.7124 8.96912L11.2949 9.72498H10.3171L11.1191 8.45496Z" fill="#272863"/>
<path d="M14.1997 9.76892C13.9434 9.76892 13.7324 9.65979 13.5669 9.44153C13.4014 9.22327 13.3186 8.90393 13.3186 8.48352C13.3186 8.05872 13.4036 7.73718 13.5735 7.51892C13.7434 7.30066 13.9631 7.19153 14.2327 7.19153C14.344 7.19153 14.4399 7.20764 14.5205 7.23987C14.6011 7.27209 14.6707 7.31604 14.7292 7.3717C14.7893 7.4259 14.8413 7.48743 14.8853 7.55627H14.9028C14.8926 7.49329 14.8831 7.40686 14.8743 7.297C14.8655 7.18567 14.8611 7.07727 14.8611 6.9718V6.30603H15.7268V9.72498H15.0786L14.894 9.41077H14.8611C14.8215 9.47668 14.7717 9.53674 14.7117 9.59094C14.6531 9.64514 14.5813 9.68835 14.4963 9.72058C14.4128 9.75281 14.314 9.76892 14.1997 9.76892ZM14.5513 9.08997C14.689 9.08997 14.7856 9.04675 14.8413 8.96033C14.8984 8.87244 14.9292 8.73914 14.9336 8.56042V8.49231C14.9336 8.29602 14.9058 8.14587 14.8501 8.04187C14.7959 7.9364 14.6934 7.88367 14.5425 7.88367C14.4399 7.88367 14.355 7.93347 14.2876 8.03308C14.2202 8.13269 14.1865 8.28723 14.1865 8.4967C14.1865 8.70325 14.2202 8.85413 14.2876 8.94934C14.3564 9.04309 14.4443 9.08997 14.5513 9.08997Z" fill="#272863"/>
<path d="M16.8496 8.45496L16.0894 7.23547H17.0649L17.4429 7.9342L17.8296 7.23547H18.8074L18.0273 8.45496L18.8381 9.72498H17.8625L17.4429 8.96912L17.0254 9.72498H16.0476L16.8496 8.45496Z" fill="#272863"/>
</g>
<path fill-rule="evenodd" clip-rule="evenodd" d="M11 14.225L4 14.225V13.225L11 13.225V14.225Z" fill="white" fill-opacity="0.05"/>
<path d="M6.73047 19.266L5.96289 17.1918H5.45312V16.4242H6.47266L7.01758 17.9301L8.3623 14.0775H9.15332L7.36035 19.266H6.73047Z" fill="white"/>
<path d="M16.9546 16.2992H18.2295V17.2152H16.9546V18.4491H16.0386V17.2152H14.7637V16.2992H16.0386V15.0448H16.9546V16.2992Z" fill="white"/>
<path opacity="0.35" d="M19.5012 3.72375H4.50122C3.94894 3.72375 3.50122 4.17147 3.50122 4.72375V19.7238C3.50122 20.276 3.94894 20.7238 4.50122 20.7238H19.5012C20.0535 20.7238 20.5012 20.276 20.5012 19.7238V4.72375C20.5012 4.17147 20.0535 3.72375 19.5012 3.72375Z" stroke="url(#paint6_linear_856_301)" stroke-linecap="round" stroke-linejoin="round"/>
<defs>
<radialGradient id="paint0_radial_856_301" cx="0" cy="0" r="1" gradientUnits="userSpaceOnUse" gradientTransform="translate(20.1012 21.725) scale(2.90022 1.5)">
<stop stop-color="#181818"/>
<stop offset="1" stop-color="#181818" stop-opacity="0"/>
</radialGradient>
<radialGradient id="paint1_radial_856_301" cx="0" cy="0" r="1" gradientUnits="userSpaceOnUse" gradientTransform="translate(3.89884 21.725) rotate(180) scale(2.90022 1.5)">
<stop stop-color="#181818"/>
<stop offset="1" stop-color="#181818" stop-opacity="0"/>
</radialGradient>
<linearGradient id="paint2_linear_856_301" x1="12.6126" y1="23.2369" x2="12.6126" y2="20.2247" gradientUnits="userSpaceOnUse">
<stop stop-color="#181818" stop-opacity="0"/>
<stop offset="0.5" stop-color="#181818"/>
<stop offset="1" stop-color="#181818" stop-opacity="0"/>
</linearGradient>
<linearGradient id="paint3_linear_856_301" x1="12" y1="2.71189" x2="12" y2="21.7225" gradientUnits="userSpaceOnUse">
<stop stop-color="#5A5A5A"/>
<stop offset="1" stop-color="#333333"/>
</linearGradient>
<linearGradient id="paint4_linear_856_301" x1="12" y1="2.72498" x2="12" y2="21.725" gradientUnits="userSpaceOnUse">
<stop offset="0.45" stop-color="#B9C6B9"/>
<stop offset="0.55" stop-color="#0E141F"/>
</linearGradient>
<linearGradient id="paint5_linear_856_301" x1="10.3242" y1="3.20198" x2="10.324" y2="12.2414" gradientUnits="userSpaceOnUse">
<stop stop-color="#DAE6DA" stop-opacity="0.941176"/>
<stop offset="1" stop-color="#B1BFB1"/>
</linearGradient>
<linearGradient id="paint6_linear_856_301" x1="12.0012" y1="4.22498" x2="12.0012" y2="20.225" gradientUnits="userSpaceOnUse">
<stop stop-color="white" stop-opacity="0.235294"/>
<stop offset="1" stop-color="white" stop-opacity="0.392157"/>
</linearGradient>
</defs>
</svg>
