<svg width="24" height="24" viewBox="0 0 24 24" fill="none" xmlns="http://www.w3.org/2000/svg">
<g opacity="0.4">
<path d="M23 20H20.1052V23H23V20Z" fill="url(#paint0_radial_856_301)"/>
<path d="M1.00004 23H3.89478V20H1.00004V23Z" fill="url(#paint1_radial_856_301)"/>
<path d="M20.1053 20H3.89478V23H20.1053V20Z" fill="url(#paint2_linear_856_301)"/>
</g>
<path d="M19.5 2.5H4.5C3.39543 2.5 2.5 3.39543 2.5 4.5V19.5C2.5 20.6046 3.39543 21.5 4.5 21.5H19.5C20.6046 21.5 21.5 20.6046 21.5 19.5V4.5C21.5 3.39543 20.6046 2.5 19.5 2.5Z" fill="url(#paint3_linear_856_301)"/>
<path fill-rule="evenodd" clip-rule="evenodd" d="M4.5 3C3.67157 3 3 3.67157 3 4.5V19.5C3 20.3284 3.67157 21 4.5 21H19.5C20.3284 21 21 20.3284 21 19.5V4.5C21 3.67157 20.3284 3 19.5 3H4.5ZM2 4.5C2 3.11929 3.11929 2 4.5 2H19.5C20.8807 2 22 3.11929 22 4.5V19.5C22 20.8807 20.8807 22 19.5 22H4.5C3.11929 22 2 20.8807 2 19.5V4.5Z" fill="url(#paint4_linear_856_301)" fill-opacity="0.5"/>
<path d="M3 4.5C3 3.67157 3.67157 3 4.5 3H19.5C20.3284 3 21 3.67157 21 4.5V12H3V4.5Z" fill="url(#paint5_linear_856_301)"/>
<path fill-rule="evenodd" clip-rule="evenodd" d="M21 13H3V12H21V13Z" fill="#2A2A2A"/>
<path fill-rule="evenodd" clip-rule="evenodd" d="M11 21V12H12V21H11Z" fill="#2A2A2A"/>
<path fill-rule="evenodd" clip-rule="evenodd" d="M13 14H20V13H12V21H13V14Z" fill="white" fill-opacity="0.05"/>
<g opacity="0.8">
<path d="M4.74048 10.9414C4.60962 10.9414 4.48853 10.9277 4.3772 10.9004C4.26587 10.873 4.15845 10.832 4.05493 10.7773V9.84863C4.14282 9.88574 4.22974 9.91895 4.31567 9.94824C4.40356 9.97754 4.47485 9.99219 4.52954 9.99219C4.62329 9.99219 4.68872 9.9668 4.72583 9.91602C4.76294 9.86719 4.78149 9.79492 4.78149 9.69922V6.08105C4.78149 5.81348 4.83228 5.59668 4.93384 5.43066C5.03735 5.2627 5.18091 5.13965 5.3645 5.06152C5.5481 4.98145 5.76196 4.94141 6.0061 4.94141C6.14087 4.94141 6.26489 4.95508 6.37817 4.98242C6.49146 5.00781 6.60181 5.04785 6.70923 5.10254V6.03125C6.61938 5.99609 6.52759 5.96387 6.43384 5.93457C6.34204 5.90332 6.26099 5.8877 6.19067 5.8877C6.13794 5.8877 6.09302 5.89844 6.05591 5.91992C6.0188 5.93945 5.99048 5.97168 5.97095 6.0166C5.95337 6.05957 5.94458 6.11719 5.94458 6.18945V9.79883C5.94458 10.1992 5.83423 10.4893 5.61353 10.6689C5.39478 10.8506 5.10376 10.9414 4.74048 10.9414Z" fill="#272863"/>
<path d="M9.77881 8.86938C9.82861 8.86938 9.88501 8.86279 9.948 8.84961C10.0125 8.83496 10.0696 8.81592 10.1194 8.79248V9.38354C10.0505 9.42603 9.95532 9.46338 9.83374 9.49561C9.71362 9.52783 9.58691 9.54395 9.45361 9.54395C9.19141 9.54395 9.00171 9.47437 8.88452 9.33521C8.7688 9.19458 8.71094 8.9917 8.71094 8.72656V7.6499H8.15723V9.5H7.2981V7.6499H6.76855V7.28516L7.20801 7.0105H10.1194V7.6499H9.57007V8.63208C9.57007 8.71704 9.59058 8.77783 9.63159 8.81445C9.67261 8.85107 9.72168 8.86938 9.77881 8.86938Z" fill="#272863"/>
<path d="M11.1191 8.22998L10.3589 7.0105H11.3345L11.7124 7.70923L12.0991 7.0105H13.0769L12.2969 8.22998L13.1077 9.5H12.1321L11.7124 8.74414L11.2949 9.5H10.3171L11.1191 8.22998Z" fill="#272863"/>
<path d="M14.1997 9.54395C13.9434 9.54395 13.7324 9.43481 13.5669 9.21655C13.4014 8.99829 13.3186 8.67896 13.3186 8.25854C13.3186 7.83374 13.4036 7.51221 13.5735 7.29395C13.7434 7.07568 13.9631 6.96655 14.2327 6.96655C14.344 6.96655 14.4399 6.98267 14.5205 7.01489C14.6011 7.04712 14.6707 7.09106 14.7292 7.14673C14.7893 7.20093 14.8413 7.26245 14.8853 7.3313H14.9028C14.8926 7.26831 14.8831 7.18188 14.8743 7.07202C14.8655 6.96069 14.8611 6.85229 14.8611 6.74683V6.08105H15.7268V9.5H15.0786L14.894 9.18579H14.8611C14.8215 9.25171 14.7717 9.31177 14.7117 9.36597C14.6531 9.42017 14.5813 9.46338 14.4963 9.49561C14.4128 9.52783 14.314 9.54395 14.1997 9.54395ZM14.5513 8.86499C14.689 8.86499 14.7856 8.82178 14.8413 8.73535C14.8984 8.64746 14.9292 8.51416 14.9336 8.33545V8.26733C14.9336 8.07104 14.9058 7.9209 14.8501 7.81689C14.7959 7.71143 14.6934 7.65869 14.5425 7.65869C14.4399 7.65869 14.355 7.7085 14.2876 7.80811C14.2202 7.90771 14.1865 8.06226 14.1865 8.27173C14.1865 8.47827 14.2202 8.62915 14.2876 8.72437C14.3564 8.81812 14.4443 8.86499 14.5513 8.86499Z" fill="#272863"/>
<path d="M16.8496 8.22998L16.0894 7.0105H17.0649L17.4429 7.70923L17.8296 7.0105H18.8074L18.0273 8.22998L18.8381 9.5H17.8625L17.4429 8.74414L17.0254 9.5H16.0476L16.8496 8.22998Z" fill="#272863"/>
</g>
<path d="M3 4.5C3 3.67157 3.67157 3 4.5 3H19.5C20.3284 3 21 3.67157 21 4.5V12H3V4.5Z" fill="url(#paint6_radial_856_301)" fill-opacity="0.75"/>
<path fill-rule="evenodd" clip-rule="evenodd" d="M11 14L4 14V13L11 13V14Z" fill="white" fill-opacity="0.05"/>
<path d="M6.73047 19.041L5.96289 16.9668H5.45312V16.1992H6.47266L7.01758 17.7051L8.3623 13.8525H9.15332L7.36035 19.041H6.73047Z" fill="white"/>
<path d="M16.9546 16.0742H18.2295V16.9902H16.9546V18.2241H16.0386V16.9902H14.7637V16.0742H16.0386V14.8198H16.9546V16.0742Z" fill="white"/>
<path opacity="0.35" d="M19.5012 3.49878H4.50122C3.94894 3.49878 3.50122 3.94649 3.50122 4.49878V19.4988C3.50122 20.0511 3.94894 20.4988 4.50122 20.4988H19.5012C20.0535 20.4988 20.5012 20.0511 20.5012 19.4988V4.49878C20.5012 3.94649 20.0535 3.49878 19.5012 3.49878Z" stroke="url(#paint7_linear_856_301)" stroke-linecap="round" stroke-linejoin="round"/>
<defs>
<radialGradient id="paint0_radial_856_301" cx="0" cy="0" r="1" gradientUnits="userSpaceOnUse" gradientTransform="translate(20.1012 21.5) scale(2.90022 1.5)">
<stop stop-color="#181818"/>
<stop offset="1" stop-color="#181818" stop-opacity="0"/>
</radialGradient>
<radialGradient id="paint1_radial_856_301" cx="0" cy="0" r="1" gradientUnits="userSpaceOnUse" gradientTransform="translate(3.89884 21.5) rotate(180) scale(2.90022 1.5)">
<stop stop-color="#181818"/>
<stop offset="1" stop-color="#181818" stop-opacity="0"/>
</radialGradient>
<linearGradient id="paint2_linear_856_301" x1="12.6126" y1="23.0119" x2="12.6126" y2="19.9998" gradientUnits="userSpaceOnUse">
<stop stop-color="#181818" stop-opacity="0"/>
<stop offset="0.5" stop-color="#181818"/>
<stop offset="1" stop-color="#181818" stop-opacity="0"/>
</linearGradient>
<linearGradient id="paint3_linear_856_301" x1="12" y1="2.48692" x2="12" y2="21.4976" gradientUnits="userSpaceOnUse">
<stop stop-color="#5A5A5A"/>
<stop offset="1" stop-color="#333333"/>
</linearGradient>
<linearGradient id="paint4_linear_856_301" x1="12" y1="2.5" x2="12" y2="21.5" gradientUnits="userSpaceOnUse">
<stop offset="0.45" stop-color="#728D72"/>
<stop offset="0.55" stop-color="#0E141F"/>
</linearGradient>
<linearGradient id="paint5_linear_856_301" x1="10.3242" y1="2.97701" x2="10.324" y2="12.0165" gradientUnits="userSpaceOnUse">
<stop stop-color="#B1BFB1"/>
<stop offset="1" stop-color="#DAE6DA" stop-opacity="0.941176"/>
</linearGradient>
<radialGradient id="paint6_radial_856_301" cx="0" cy="0" r="1" gradientUnits="userSpaceOnUse" gradientTransform="translate(10.3421 3) rotate(72.0904) scale(5.39124 20.734)">
<stop stop-color="white"/>
<stop offset="0.9999" stop-color="white" stop-opacity="0.2"/>
<stop offset="1" stop-color="white" stop-opacity="0"/>
</radialGradient>
<linearGradient id="paint7_linear_856_301" x1="12.0012" y1="4.00001" x2="12.0012" y2="20" gradientUnits="userSpaceOnUse">
<stop stop-color="white" stop-opacity="0.235294"/>
<stop offset="1" stop-color="white" stop-opacity="0.392157"/>
</linearGradient>
</defs>
</svg>
