<svg width="128" height="128" viewBox="0 0 128 128" fill="none" xmlns="http://www.w3.org/2000/svg">
<path opacity="0.2" d="M119 118.002C118.997 119.593 113.201 121.119 102.887 122.244C92.5726 123.369 78.5849 124 64 124C49.4151 124 35.4274 123.369 25.1133 122.244C14.7991 121.119 9.00311 119.593 9 118.002C8.99846 117.214 10.4199 116.433 13.1833 115.705C15.9466 114.977 19.9976 114.316 25.105 113.758C30.2124 113.201 36.276 112.759 42.9497 112.457C49.6234 112.156 56.7763 112 64 112C71.2237 112 78.3766 112.156 85.0503 112.457C91.724 112.759 97.7876 113.201 102.895 113.758C108.002 114.316 112.053 114.977 114.817 115.705C117.58 116.433 119.002 117.214 119 118.002Z" fill="url(#paint0_radial_856_244)"/>
<g opacity="0.4">
<path d="M118 116.002H103.789V121.002H118V116.002Z" fill="url(#paint1_radial_856_244)"/>
<path d="M10 121.002H24.2106V116.002H10V121.002Z" fill="url(#paint2_radial_856_244)"/>
<path d="M103.79 116.002H24.2106V121.002H103.79V116.002Z" fill="url(#paint3_linear_856_244)"/>
</g>
<path d="M105.5 15.5018H22.5C16.9772 15.5018 12.5 19.979 12.5 25.5018V108.502C12.5 114.025 16.9772 118.502 22.5 118.502H105.5C111.023 118.502 115.5 114.025 115.5 108.502V25.5018C115.5 19.979 111.023 15.5018 105.5 15.5018Z" fill="url(#paint4_linear_856_244)"/>
<path fill-rule="evenodd" clip-rule="evenodd" d="M22.5 16.0018C17.2533 16.0018 13 20.2551 13 25.5018V108.502C13 113.749 17.2533 118.002 22.5 118.002H105.5C110.747 118.002 115 113.749 115 108.502V25.5018C115 20.2551 110.747 16.0018 105.5 16.0018H22.5ZM12 25.5018C12 19.7028 16.701 15.0018 22.5 15.0018H105.5C111.299 15.0018 116 19.7028 116 25.5018V108.502C116 114.301 111.299 119.002 105.5 119.002H22.5C16.701 119.002 12 114.301 12 108.502V25.5018Z" fill="url(#paint5_linear_856_244)" fill-opacity="0.5"/>
<path d="M13 25.5C13 20.2533 17.2533 16 22.5 16H105.5C110.747 16 115 20.2533 115 25.5V66H13V25.5Z" fill="url(#paint6_linear_856_244)"/>
<path fill-rule="evenodd" clip-rule="evenodd" d="M115 67H13V66H115V67Z" fill="#2A2A2A"/>
<path fill-rule="evenodd" clip-rule="evenodd" d="M63 118V67H64V118H63Z" fill="#2A2A2A"/>
<path fill-rule="evenodd" clip-rule="evenodd" d="M64.9999 68H114V67H63.9999V118H64.9999V68Z" fill="white" fill-opacity="0.05"/>
<g opacity="0.8">
<path d="M20.1656 60.8887C19.7561 60.8887 19.3707 60.8586 19.0094 60.7983C18.6481 60.7381 18.2988 60.6538 17.9615 60.5454V58.9556C18.2265 59.0519 18.5276 59.1362 18.8649 59.2085C19.2142 59.2808 19.6176 59.3169 20.0753 59.3169C21.1834 59.3169 22.0446 58.9074 22.6588 58.0884C23.2731 57.2694 23.5802 55.9927 23.5802 54.2583V30.5913C23.5802 29.0376 23.7789 27.7669 24.1764 26.7793C24.5859 25.7917 25.1821 25.063 25.965 24.5933C26.7599 24.1235 27.7355 23.8887 28.8917 23.8887C29.2531 23.8887 29.6023 23.9128 29.9396 23.9609C30.2768 24.0091 30.5599 24.0693 30.7887 24.1416V25.7314C30.5237 25.6471 30.2226 25.5809 29.8854 25.5327C29.5481 25.4725 29.2169 25.4424 28.8917 25.4424C28.0968 25.4424 27.4344 25.617 26.9044 25.9663C26.3865 26.3156 26.0011 26.8817 25.7482 27.6646C25.4952 28.4474 25.3688 29.4953 25.3688 30.8081V54.4028C25.3688 56.631 24.887 58.269 23.9235 59.3169C22.972 60.3647 21.7194 60.8887 20.1656 60.8887Z" fill="#272863"/>
<path d="M46.6793 50.7559C46.9436 50.7559 47.1715 50.7331 47.3629 50.6875C47.5634 50.6328 47.7321 50.5781 47.8688 50.5234V52C47.7229 52.0638 47.5087 52.123 47.2262 52.1777C46.9528 52.2415 46.6246 52.2734 46.2418 52.2734C45.3212 52.2734 44.6194 51.9954 44.1364 51.4395C43.6533 50.8835 43.4117 50.0632 43.4117 48.9785V38.6016H36.5211V52H34.7438V38.6016H31.7086V37.6992L33.8688 37.084H48.1969V38.6016H45.1891V48.7734C45.1891 49.4753 45.3167 49.9811 45.5719 50.291C45.8362 50.6009 46.2054 50.7559 46.6793 50.7559Z" fill="#272863"/>
<path d="M55.0465 44.3438L49.8649 37.084H51.9567L56.1403 43.1133L60.3239 37.084H62.3883L57.2203 44.3438L62.6891 52H60.5973L56.1403 45.6016L51.6832 52H49.6188L55.0465 44.3438Z" fill="#272863"/>
<path d="M71.0973 52.2734C69.1285 52.2734 67.6018 51.6309 66.5172 50.3457C65.4326 49.0605 64.8903 47.1647 64.8903 44.6582C64.8903 42.0879 65.4508 40.1374 66.5719 38.8066C67.7021 37.4668 69.2379 36.7969 71.1793 36.7969C72.0087 36.7969 72.7288 36.9154 73.3395 37.1523C73.9593 37.3893 74.4834 37.7129 74.9117 38.123C75.3401 38.5241 75.6865 38.9798 75.9508 39.4902H76.0875C76.0511 39.1074 76.0192 38.6517 75.9918 38.123C75.9645 37.5944 75.9508 37.1387 75.9508 36.7559V30.7266H77.7555V52H76.2926L76.0465 49.5664H75.9508C75.6865 50.0586 75.3356 50.5143 74.8981 50.9336C74.4697 51.3438 73.941 51.6719 73.3121 51.918C72.6923 52.1549 71.9541 52.2734 71.0973 52.2734ZM71.3434 50.7422C73.0205 50.7422 74.2099 50.2409 74.9117 49.2383C75.6227 48.2357 75.9781 46.7773 75.9781 44.8633V44.5488C75.9781 42.5436 75.6318 41.0078 74.9391 39.9414C74.2555 38.8659 73.0797 38.3281 71.4117 38.3281C69.8805 38.3281 68.7229 38.8841 67.9391 39.9961C67.1552 41.1081 66.7633 42.6758 66.7633 44.6992C66.7633 46.6589 67.137 48.1582 67.8844 49.1973C68.6409 50.2272 69.7939 50.7422 71.3434 50.7422Z" fill="#272863"/>
<path d="M86.2184 44.3438L81.0367 37.084H83.1285L87.3121 43.1133L91.4957 37.084H93.5602L88.3922 44.3438L93.861 52H91.7692L87.3121 45.6016L82.8551 52H80.7906L86.2184 44.3438Z" fill="#272863"/>
</g>
<path d="M13 25.5C13 20.2533 17.2533 16 22.5 16H105.5C110.747 16 115 20.2533 115 25.5V66H13V25.5Z" fill="url(#paint7_radial_856_244)" fill-opacity="0.75"/>
<path fill-rule="evenodd" clip-rule="evenodd" d="M63 68L14 68V67L63 67V68Z" fill="white" fill-opacity="0.05"/>
<path fill-rule="evenodd" clip-rule="evenodd" d="M114 66L14 66V65L114 65V66Z" fill="white" fill-opacity="0.05"/>
<path d="M36.6902 107.897L32.4246 96.022H29.6277V93.3188H34.3933L37.8621 103.131L45.7214 80.7563H48.5027L39.1121 107.897H36.6902Z" fill="black" fill-opacity="0.25"/>
<path d="M36.6902 105.301L32.4246 93.4264H29.6277V90.7233H34.3933L37.8621 100.536L45.7214 78.1608H48.5027L39.1121 105.301H36.6902Z" fill="white"/>
<path d="M90.2891 93.5703H98.3359V96.2266H90.2891V104.508H87.6133V96.2266H79.5664V93.5703H87.6133V85.25H90.2891V93.5703Z" fill="black" fill-opacity="0.25"/>
<path d="M90.2891 91.5703H98.3359V94.2266H90.2891V102.508H87.6133V94.2266H79.5664V91.5703H87.6133V83.25H90.2891V91.5703Z" fill="white"/>
<path opacity="0.5" d="M105.5 16.5018H22.5C17.5294 16.5018 13.5 20.5313 13.5 25.5018V108.502C13.5 113.472 17.5294 117.502 22.5 117.502H105.5C110.471 117.502 114.5 113.472 114.5 108.502V25.5018C114.5 20.5313 110.471 16.5018 105.5 16.5018Z" stroke="url(#paint8_linear_856_244)" stroke-linecap="round" stroke-linejoin="round"/>
<defs>
<radialGradient id="paint0_radial_856_244" cx="0" cy="0" r="1" gradientUnits="userSpaceOnUse" gradientTransform="translate(64 118.002) scale(55 6)">
<stop/>
<stop offset="1" stop-opacity="0"/>
</radialGradient>
<radialGradient id="paint1_radial_856_244" cx="0" cy="0" r="1" gradientUnits="userSpaceOnUse" gradientTransform="translate(103.769 118.502) scale(14.2374 2.5)">
<stop stop-color="#181818"/>
<stop offset="1" stop-color="#181818" stop-opacity="0"/>
</radialGradient>
<radialGradient id="paint2_radial_856_244" cx="0" cy="0" r="1" gradientUnits="userSpaceOnUse" gradientTransform="translate(24.2305 118.502) rotate(180) scale(14.2374 2.5)">
<stop stop-color="#181818"/>
<stop offset="1" stop-color="#181818" stop-opacity="0"/>
</radialGradient>
<linearGradient id="paint3_linear_856_244" x1="67.0073" y1="121.022" x2="67.0073" y2="116.001" gradientUnits="userSpaceOnUse">
<stop stop-color="#181818" stop-opacity="0"/>
<stop offset="0.5" stop-color="#181818"/>
<stop offset="1" stop-color="#181818" stop-opacity="0"/>
</linearGradient>
<linearGradient id="paint4_linear_856_244" x1="64" y1="15.4309" x2="64" y2="118.489" gradientUnits="userSpaceOnUse">
<stop stop-color="#5A5A5A"/>
<stop offset="1" stop-color="#333333"/>
</linearGradient>
<linearGradient id="paint5_linear_856_244" x1="64" y1="15.5018" x2="64" y2="118.502" gradientUnits="userSpaceOnUse">
<stop offset="0.4" stop-color="#B9C6B9"/>
<stop offset="0.6" stop-color="#0E141F"/>
</linearGradient>
<linearGradient id="paint6_linear_856_244" x1="54.5037" y1="15.8723" x2="54.5026" y2="66.0915" gradientUnits="userSpaceOnUse">
<stop stop-color="#B1BFB1"/>
<stop offset="1" stop-color="#DAE6DA" stop-opacity="0.941176"/>
</linearGradient>
<radialGradient id="paint7_radial_856_244" cx="0" cy="0" r="1" gradientUnits="userSpaceOnUse" gradientTransform="translate(54.6053 16) rotate(71.7557) scale(30.0085 117.269)">
<stop stop-color="white"/>
<stop offset="0.9999" stop-color="white" stop-opacity="0.2"/>
<stop offset="1" stop-color="white" stop-opacity="0"/>
</radialGradient>
<linearGradient id="paint8_linear_856_244" x1="64" y1="15.137" x2="64" y2="118.867" gradientUnits="userSpaceOnUse">
<stop stop-color="white"/>
<stop offset="0.0631645" stop-color="white" stop-opacity="0.235294"/>
<stop offset="0.950563" stop-color="white" stop-opacity="0.156863"/>
<stop offset="1" stop-color="white" stop-opacity="0.392157"/>
</linearGradient>
</defs>
</svg>
