<svg width="128" height="128" viewBox="0 0 128 128" fill="none" xmlns="http://www.w3.org/2000/svg">
<path opacity="0.2" d="M119 118.227C118.997 119.818 113.201 121.344 102.887 122.469C92.5726 123.593 78.5849 124.225 64 124.225C49.4151 124.225 35.4274 123.593 25.1133 122.469C14.7991 121.344 9.00311 119.818 9 118.227C8.99846 117.439 10.4199 116.658 13.1833 115.93C15.9466 115.202 19.9976 114.541 25.105 113.983C30.2124 113.426 36.276 112.984 42.9497 112.682C49.6234 112.381 56.7763 112.225 64 112.225C71.2237 112.225 78.3766 112.381 85.0503 112.682C91.724 112.984 97.7876 113.426 102.895 113.983C108.002 114.541 112.053 115.202 114.817 115.93C117.58 116.658 119.002 117.439 119 118.227Z" fill="url(#paint0_radial_856_244)"/>
<g opacity="0.4">
<path d="M118 116.227H103.789V121.227H118V116.227Z" fill="url(#paint1_radial_856_244)"/>
<path d="M10 121.227H24.2106V116.227H10V121.227Z" fill="url(#paint2_radial_856_244)"/>
<path d="M103.79 116.227H24.2106V121.227H103.79V116.227Z" fill="url(#paint3_linear_856_244)"/>
</g>
<path d="M105.5 15.7268H22.5C16.9772 15.7268 12.5 20.204 12.5 25.7268V108.727C12.5 114.25 16.9772 118.727 22.5 118.727H105.5C111.023 118.727 115.5 114.25 115.5 108.727V25.7268C115.5 20.204 111.023 15.7268 105.5 15.7268Z" fill="url(#paint4_linear_856_244)" stroke="url(#paint5_linear_856_244)" stroke-opacity="0.5" stroke-width="0.999998"/>
<path d="M13 25.725C13 20.4783 17.2533 16.225 22.5 16.225H105.5C110.747 16.225 115 20.4783 115 25.725V66.225H13V25.725Z" fill="url(#paint6_linear_856_244)"/>
<path fill-rule="evenodd" clip-rule="evenodd" d="M115 67.225H13V66.225H115V67.225Z" fill="#2A2A2A"/>
<path fill-rule="evenodd" clip-rule="evenodd" d="M63 118.225V67.225H64V118.225H63Z" fill="#2A2A2A"/>
<path fill-rule="evenodd" clip-rule="evenodd" d="M64.9999 68.225H114V67.225H63.9999V118.225H64.9999V68.225Z" fill="white" fill-opacity="0.05"/>
<g opacity="0.8">
<path d="M20.1656 61.1136C19.7561 61.1136 19.3707 61.0835 19.0094 61.0233C18.6481 60.9631 18.2988 60.8788 17.9615 60.7704V59.1805C18.2265 59.2769 18.5276 59.3612 18.8649 59.4335C19.2142 59.5057 19.6176 59.5419 20.0753 59.5419C21.1834 59.5419 22.0446 59.1324 22.6588 58.3134C23.2731 57.4943 23.5802 56.2177 23.5802 54.4833V30.8163C23.5802 29.2626 23.7789 27.9919 24.1764 27.0043C24.5859 26.0166 25.1821 25.288 25.965 24.8182C26.7599 24.3485 27.7355 24.1136 28.8917 24.1136C29.2531 24.1136 29.6023 24.1377 29.9396 24.1859C30.2768 24.2341 30.5599 24.2943 30.7887 24.3666V25.9564C30.5237 25.8721 30.2226 25.8059 29.8854 25.7577C29.5481 25.6975 29.2169 25.6674 28.8917 25.6674C28.0968 25.6674 27.4344 25.842 26.9044 26.1913C26.3865 26.5406 26.0011 27.1066 25.7482 27.8895C25.4952 28.6724 25.3688 29.7203 25.3688 31.0331V54.6278C25.3688 56.856 24.887 58.494 23.9235 59.5419C22.972 60.5897 21.7194 61.1136 20.1656 61.1136Z" fill="#272863"/>
<path d="M46.6793 50.9808C46.9436 50.9808 47.1715 50.958 47.3629 50.9125C47.5634 50.8578 47.7321 50.8031 47.8688 50.7484V52.225C47.7229 52.2888 47.5087 52.348 47.2262 52.4027C46.9528 52.4665 46.6246 52.4984 46.2418 52.4984C45.3212 52.4984 44.6194 52.2204 44.1364 51.6644C43.6533 51.1084 43.4117 50.2881 43.4117 49.2035V38.8265H36.5211V52.225H34.7438V38.8265H31.7086V37.9242L33.8688 37.309H48.1969V38.8265H45.1891V48.9984C45.1891 49.7002 45.3167 50.2061 45.5719 50.516C45.8362 50.8259 46.2054 50.9808 46.6793 50.9808Z" fill="#272863"/>
<path d="M55.0465 44.5687L49.8649 37.309H51.9567L56.1403 43.3383L60.3239 37.309H62.3883L57.2203 44.5687L62.6891 52.225H60.5973L56.1403 45.8265L51.6832 52.225H49.6188L55.0465 44.5687Z" fill="#272863"/>
<path d="M71.0973 52.4984C69.1285 52.4984 67.6018 51.8558 66.5172 50.5707C65.4326 49.2855 64.8903 47.3897 64.8903 44.8832C64.8903 42.3129 65.4508 40.3623 66.5719 39.0316C67.7021 37.6918 69.2379 37.0219 71.1793 37.0219C72.0087 37.0219 72.7288 37.1403 73.3395 37.3773C73.9593 37.6143 74.4834 37.9379 74.9117 38.348C75.3401 38.7491 75.6865 39.2048 75.9508 39.7152H76.0875C76.0511 39.3324 76.0192 38.8767 75.9918 38.348C75.9645 37.8194 75.9508 37.3636 75.9508 36.9808V30.9515H77.7555V52.225H76.2926L76.0465 49.7914H75.9508C75.6865 50.2836 75.3356 50.7393 74.8981 51.1586C74.4697 51.5687 73.941 51.8969 73.3121 52.1429C72.6923 52.3799 71.9541 52.4984 71.0973 52.4984ZM71.3434 50.9672C73.0205 50.9672 74.2099 50.4659 74.9117 49.4633C75.6227 48.4607 75.9781 47.0023 75.9781 45.0883V44.7738C75.9781 42.7686 75.6318 41.2328 74.9391 40.1664C74.2555 39.0909 73.0797 38.5531 71.4117 38.5531C69.8805 38.5531 68.7229 39.1091 67.9391 40.2211C67.1552 41.333 66.7633 42.9008 66.7633 44.9242C66.7633 46.8838 67.137 48.3832 67.8844 49.4222C68.6409 50.4522 69.7939 50.9672 71.3434 50.9672Z" fill="#272863"/>
<path d="M86.2184 44.5687L81.0367 37.309H83.1285L87.3121 43.3383L91.4957 37.309H93.5602L88.3922 44.5687L93.861 52.225H91.7692L87.3121 45.8265L82.8551 52.225H80.7906L86.2184 44.5687Z" fill="#272863"/>
</g>
<path fill-rule="evenodd" clip-rule="evenodd" d="M63 68.225L14 68.225V67.225L63 67.225V68.225Z" fill="white" fill-opacity="0.05"/>
<path fill-rule="evenodd" clip-rule="evenodd" d="M114 66.225L14 66.225V65.225L114 65.225V66.225Z" fill="white" fill-opacity="0.05"/>
<path d="M36.6902 108.122L32.4246 96.2469H29.6277V93.5438H34.3933L37.8621 103.356L45.7214 80.9813H48.5027L39.1121 108.122H36.6902Z" fill="black" fill-opacity="0.25"/>
<path d="M36.6902 105.526L32.4246 93.6514H29.6277V90.9482H34.3933L37.8621 100.761L45.7214 78.3857H48.5027L39.1121 105.526H36.6902Z" fill="white"/>
<path d="M90.2891 93.7953H98.3359V96.4515H90.2891V104.733H87.6133V96.4515H79.5664V93.7953H87.6133V85.475H90.2891V93.7953Z" fill="black" fill-opacity="0.25"/>
<path d="M90.2891 91.7953H98.3359V94.4515H90.2891V102.733H87.6133V94.4515H79.5664V91.7953H87.6133V83.475H90.2891V91.7953Z" fill="white"/>
<path opacity="0.5" d="M105.5 16.7268H22.5C17.5294 16.7268 13.5 20.7562 13.5 25.7268V108.727C13.5 113.697 17.5294 117.727 22.5 117.727H105.5C110.471 117.727 114.5 113.697 114.5 108.727V25.7268C114.5 20.7562 110.471 16.7268 105.5 16.7268Z" stroke="url(#paint7_linear_856_244)" stroke-linecap="round" stroke-linejoin="round"/>
<defs>
<radialGradient id="paint0_radial_856_244" cx="0" cy="0" r="1" gradientUnits="userSpaceOnUse" gradientTransform="translate(64 118.227) scale(55 6)">
<stop/>
<stop offset="1" stop-opacity="0"/>
</radialGradient>
<radialGradient id="paint1_radial_856_244" cx="0" cy="0" r="1" gradientUnits="userSpaceOnUse" gradientTransform="translate(103.769 118.727) scale(14.2374 2.5)">
<stop stop-color="#181818"/>
<stop offset="1" stop-color="#181818" stop-opacity="0"/>
</radialGradient>
<radialGradient id="paint2_radial_856_244" cx="0" cy="0" r="1" gradientUnits="userSpaceOnUse" gradientTransform="translate(24.2305 118.727) rotate(180) scale(14.2374 2.5)">
<stop stop-color="#181818"/>
<stop offset="1" stop-color="#181818" stop-opacity="0"/>
</radialGradient>
<linearGradient id="paint3_linear_856_244" x1="67.0073" y1="121.247" x2="67.0073" y2="116.226" gradientUnits="userSpaceOnUse">
<stop stop-color="#181818" stop-opacity="0"/>
<stop offset="0.5" stop-color="#181818"/>
<stop offset="1" stop-color="#181818" stop-opacity="0"/>
</linearGradient>
<linearGradient id="paint4_linear_856_244" x1="64" y1="15.6559" x2="64" y2="118.714" gradientUnits="userSpaceOnUse">
<stop stop-color="#5A5A5A"/>
<stop offset="1" stop-color="#333333"/>
</linearGradient>
<linearGradient id="paint5_linear_856_244" x1="64" y1="15.7268" x2="64" y2="118.727" gradientUnits="userSpaceOnUse">
<stop offset="0.4" stop-color="#B9C6B9"/>
<stop offset="0.6" stop-color="#0E141F"/>
</linearGradient>
<linearGradient id="paint6_linear_856_244" x1="54.5037" y1="16.0972" x2="54.5026" y2="66.3165" gradientUnits="userSpaceOnUse">
<stop stop-color="#DAE6DA" stop-opacity="0.941176"/>
<stop offset="1" stop-color="#B1BFB1"/>
</linearGradient>
<linearGradient id="paint7_linear_856_244" x1="64" y1="15.3619" x2="64" y2="119.092" gradientUnits="userSpaceOnUse">
<stop stop-color="white"/>
<stop offset="0.0631645" stop-color="white" stop-opacity="0.235294"/>
<stop offset="0.950563" stop-color="white" stop-opacity="0.156863"/>
<stop offset="1" stop-color="white" stop-opacity="0.392157"/>
</linearGradient>
</defs>
</svg>
