<svg width="16" height="16" viewBox="0 0 16 16" fill="none" xmlns="http://www.w3.org/2000/svg">
<path d="M12.5 1.5H3.5C2.39543 1.5 1.5 2.39543 1.5 3.5V12.5C1.5 13.6046 2.39543 14.5 3.5 14.5H12.5C13.6046 14.5 14.5 13.6046 14.5 12.5V3.5C14.5 2.39543 13.6046 1.5 12.5 1.5Z" fill="url(#paint0_linear_856_224)"/>
<path fill-rule="evenodd" clip-rule="evenodd" d="M3.5 2C2.67157 2 2 2.67157 2 3.5V12.5C2 13.3284 2.67157 14 3.5 14H12.5C13.3284 14 14 13.3284 14 12.5V3.5C14 2.67157 13.3284 2 12.5 2H3.5ZM1 3.5C1 2.11929 2.11929 1 3.5 1H12.5C13.8807 1 15 2.11929 15 3.5V12.5C15 13.8807 13.8807 15 12.5 15H3.5C2.11929 15 1 13.8807 1 12.5V3.5Z" fill="url(#paint1_linear_856_224)" fill-opacity="0.5"/>
<path d="M2 3.5C2 2.67157 2.67157 2 3.5 2H12.5C13.3284 2 14 2.67157 14 3.5V8H2V3.5Z" fill="url(#paint2_linear_856_224)"/>
<path fill-rule="evenodd" clip-rule="evenodd" d="M14 9H2V8H14V9Z" fill="#2A2A2A"/>
<path fill-rule="evenodd" clip-rule="evenodd" d="M7 14V8H8V14H7Z" fill="#2A2A2A"/>
<path fill-rule="evenodd" clip-rule="evenodd" d="M9 10H13V9H8V14H9V10Z" fill="white" fill-opacity="0.05"/>
<g opacity="0.8">
<path d="M3.4967 7.16089C3.40946 7.16089 3.32874 7.15177 3.25452 7.13354C3.1803 7.11532 3.10868 7.08797 3.03967 7.05151V6.43237C3.09827 6.45711 3.15621 6.47925 3.2135 6.49878C3.27209 6.51831 3.31962 6.52808 3.35608 6.52808C3.41858 6.52808 3.4622 6.51115 3.48694 6.47729C3.51168 6.44474 3.52405 6.39657 3.52405 6.33276V3.92065C3.52405 3.74227 3.5579 3.59774 3.62561 3.48706C3.69462 3.37508 3.79032 3.29305 3.91272 3.24097C4.03512 3.18758 4.17769 3.16089 4.34045 3.16089C4.4303 3.16089 4.51298 3.17 4.5885 3.18823C4.66402 3.20516 4.73759 3.23185 4.8092 3.26831V3.88745C4.74931 3.86401 4.68811 3.84253 4.62561 3.823C4.56441 3.80216 4.51038 3.79175 4.4635 3.79175C4.42834 3.79175 4.3984 3.79891 4.37366 3.81323C4.34892 3.82625 4.33004 3.84774 4.31702 3.87769C4.3053 3.90633 4.29944 3.94474 4.29944 3.99292V6.39917C4.29944 6.6661 4.22587 6.85946 4.07874 6.97925C3.9329 7.10034 3.73889 7.16089 3.4967 7.16089Z" fill="#272863"/>
<path d="M4.90955 5.33643V4.65088H6.151V5.33643H4.90955Z" fill="#272863"/>
<path d="M6.34216 5.33643V4.65088H7.58362V5.33643H6.34216Z" fill="#272863"/>
<path d="M9.66003 2.94141L8.46252 6.2439H7.70227L8.89978 2.94141H9.66003Z" fill="#272863"/>
<path d="M9.7655 5.33643V4.65088H11.007V5.33643H9.7655Z" fill="#272863"/>
</g>
<path fill-rule="evenodd" clip-rule="evenodd" d="M7 9.99988L3 9.99988L3 8.99988L7 8.99988V9.99988Z" fill="white" fill-opacity="0.05"/>
<path d="M5.54553 9.99561L4.48108 12.9312H3.8053L4.86975 9.99561H5.54553Z" fill="white"/>
<path d="M11.3896 11.1588H12.4824V11.944H11.3896V13.0016H10.6045V11.944H9.51172V11.1588H10.6045V10.0836H11.3896V11.1588Z" fill="white"/>
<path opacity="0.35" d="M12.5 2.5H3.5C2.94772 2.5 2.5 2.94772 2.5 3.5V12.5C2.5 13.0523 2.94772 13.5 3.5 13.5H12.5C13.0523 13.5 13.5 13.0523 13.5 12.5V3.5C13.5 2.94772 13.0523 2.5 12.5 2.5Z" stroke="url(#paint3_linear_856_224)" stroke-linecap="round" stroke-linejoin="round"/>
<defs>
<linearGradient id="paint0_linear_856_224" x1="8" y1="1.49105" x2="8" y2="14.4983" gradientUnits="userSpaceOnUse">
<stop stop-color="#5A5A5A"/>
<stop offset="1" stop-color="#333333"/>
</linearGradient>
<linearGradient id="paint1_linear_856_224" x1="8" y1="1.5" x2="8" y2="14.5" gradientUnits="userSpaceOnUse">
<stop offset="0.5" stop-color="#B9C6B9"/>
<stop offset="0.5" stop-color="#0E141F"/>
</linearGradient>
<linearGradient id="paint2_linear_856_224" x1="6.88279" y1="1.98467" x2="8.99992" y2="8.00003" gradientUnits="userSpaceOnUse">
<stop stop-color="#DDE3DD"/>
<stop offset="0.485" stop-color="#C9D4C9"/>
<stop offset="0.5" stop-color="#BDCABD"/>
<stop offset="1" stop-color="#D0DBD0"/>
</linearGradient>
<linearGradient id="paint3_linear_856_224" x1="8" y1="3" x2="8" y2="13" gradientUnits="userSpaceOnUse">
<stop stop-color="white" stop-opacity="0.235294"/>
<stop offset="1" stop-color="white" stop-opacity="0.392157"/>
</linearGradient>
</defs>
</svg>
