<svg width="32" height="33" viewBox="0 0 32 33" fill="none" xmlns="http://www.w3.org/2000/svg">
<g opacity="0.4">
<path d="M30 28.225H26.3158V31.225H30V28.225Z" fill="url(#paint0_radial_856_205)"/>
<path d="M1.99999 31.225H5.6842V28.225H1.99999V31.225Z" fill="url(#paint1_radial_856_205)"/>
<path d="M26.3158 28.225H5.6842V31.225H26.3158V28.225Z" fill="url(#paint2_linear_856_205)"/>
</g>
<path d="M26.5 2.72498H5.5C3.84315 2.72498 2.5 4.06812 2.5 5.72498V26.725C2.5 28.3818 3.84315 29.725 5.5 29.725H26.5C28.1569 29.725 29.5 28.3818 29.5 26.725V5.72498C29.5 4.06812 28.1569 2.72498 26.5 2.72498Z" fill="url(#paint3_linear_856_205)" stroke="url(#paint4_linear_856_205)" stroke-opacity="0.5" stroke-width="0.999998"/>
<path d="M3 5.72498C3 4.34426 4.11929 3.22498 5.5 3.22498H26.5C27.8807 3.22498 29 4.34426 29 5.72498V16.225H3V5.72498Z" fill="url(#paint5_linear_856_205)"/>
<path fill-rule="evenodd" clip-rule="evenodd" d="M29 17.225H3V16.225H29V17.225Z" fill="#2A2A2A"/>
<path fill-rule="evenodd" clip-rule="evenodd" d="M15 29.225V16.225H16V29.225H15Z" fill="#2A2A2A"/>
<path fill-rule="evenodd" clip-rule="evenodd" d="M17 18.225H28V17.225H16V29.225H17V18.225Z" fill="white" fill-opacity="0.05"/>
<g opacity="0.8">
<path d="M5.96155 15.2273C5.82808 15.2273 5.69462 15.2143 5.56116 15.1882C5.43095 15.1654 5.31702 15.1361 5.21936 15.1003V14.2751C5.304 14.3077 5.40328 14.337 5.51721 14.363C5.63114 14.3923 5.74508 14.407 5.85901 14.407C6.13896 14.407 6.33915 14.3142 6.45959 14.1287C6.58004 13.9431 6.64026 13.6892 6.64026 13.3669V7.02905C6.64026 6.60262 6.70699 6.25757 6.84045 5.9939C6.97717 5.73022 7.16923 5.53654 7.41663 5.41284C7.66728 5.28914 7.96187 5.22729 8.30042 5.22729C8.42737 5.22729 8.55269 5.23706 8.67639 5.25659C8.80334 5.27612 8.91239 5.30379 9.00354 5.3396V6.17456C8.92216 6.13875 8.82613 6.10783 8.71545 6.08179C8.60803 6.05575 8.49898 6.04272 8.38831 6.04272C8.20927 6.04272 8.06278 6.08504 7.94885 6.16968C7.83818 6.25431 7.7568 6.37476 7.70471 6.53101C7.65263 6.68726 7.62659 6.8728 7.62659 7.08765V13.4304C7.62659 14.0619 7.47522 14.5193 7.17249 14.8025C6.86975 15.0857 6.46611 15.2273 5.96155 15.2273Z" fill="#272863"/>
<path d="M13.4796 12.1208C13.5594 12.1208 13.6346 12.1106 13.7052 12.0901C13.7781 12.0696 13.8453 12.0422 13.9069 12.0081V12.719C13.8317 12.7646 13.728 12.8044 13.5958 12.8386C13.4637 12.8751 13.3281 12.8933 13.1891 12.8933C12.8769 12.8933 12.6297 12.8067 12.4474 12.6335C12.2651 12.4604 12.174 12.1847 12.174 11.8064V9.76929H10.9606V12.825H9.97961V9.76929H9.18665V9.34546L9.78479 9.01392H13.9547V9.76929H13.1583V11.7654C13.1583 11.8861 13.1891 11.9762 13.2506 12.0354C13.3121 12.0924 13.3885 12.1208 13.4796 12.1208Z" fill="#272863"/>
<path d="M15.5509 10.8767L14.3136 9.01392H15.4279L16.2003 10.2581L16.9796 9.01392H18.0939L16.8429 10.8767L18.152 12.825H17.0343L16.2003 11.4885L15.3629 12.825H14.2487L15.5509 10.8767Z" fill="#272863"/>
<path d="M19.9772 12.8933C19.5465 12.8933 19.1967 12.727 18.9279 12.3943C18.659 12.0616 18.5245 11.5728 18.5245 10.928C18.5245 10.274 18.6601 9.77954 18.9313 9.44458C19.2047 9.10962 19.5625 8.94214 20.0045 8.94214C20.1891 8.94214 20.3509 8.9672 20.4899 9.01733C20.6311 9.06746 20.7519 9.13468 20.8522 9.21899C20.9547 9.3033 21.0413 9.39901 21.1119 9.5061H21.1495C21.1359 9.43319 21.1199 9.32723 21.1017 9.18823C21.0835 9.04696 21.0743 8.90568 21.0743 8.7644V7.50659H22.0621V12.825H21.3033L21.1154 12.3259H21.0743C21.0083 12.4307 20.9251 12.5264 20.8248 12.613C20.7246 12.6996 20.6049 12.768 20.4659 12.8181C20.3269 12.8682 20.164 12.8933 19.9772 12.8933ZM20.3087 12.1072C20.6095 12.1072 20.8214 12.0194 20.9445 11.844C21.0675 11.6663 21.1324 11.3997 21.1393 11.0442V10.9314C21.1393 10.5463 21.0789 10.2524 20.9581 10.0496C20.8396 9.84448 20.6186 9.74194 20.295 9.74194C20.049 9.74194 19.8587 9.84562 19.7242 10.053C19.5898 10.2603 19.5226 10.5566 19.5226 10.9417C19.5226 11.3245 19.5898 11.615 19.7242 11.8132C19.861 12.0092 20.0558 12.1072 20.3087 12.1072Z" fill="#272863"/>
<path d="M23.9659 10.8767L22.7286 9.01392H23.8429L24.6154 10.2581L25.3947 9.01392H26.5089L25.2579 10.8767L26.567 12.825H25.4493L24.6154 11.4885L23.778 12.825H22.6637L23.9659 10.8767Z" fill="#272863"/>
</g>
<path fill-rule="evenodd" clip-rule="evenodd" d="M15 18.225L4 18.225V17.225L15 17.225V18.225Z" fill="white" fill-opacity="0.05"/>
<path d="M8.61816 27.2831L7.53076 24.3446H6.80859V23.2572H8.25293L9.0249 25.3905L10.9299 19.9327H12.0505L9.5105 27.2831H8.61816Z" fill="black" fill-opacity="0.25"/>
<path d="M8.61816 26.2831L7.53076 23.3446H6.80859V22.2572H8.25293L9.0249 24.3905L10.9299 18.9327H12.0505L9.5105 26.2831H8.61816Z" fill="white"/>
<path d="M22.9673 23.869H25.1157V24.8251H22.9673V26.995H22.0112V24.8251H19.8682V23.869H22.0112V21.6776H22.9673V23.869Z" fill="black" fill-opacity="0.25"/>
<path d="M22.9673 22.869H25.1157V23.8251H22.9673V25.995H22.0112V23.8251H19.8682V22.869H22.0112V20.6776H22.9673V22.869Z" fill="white"/>
<path opacity="0.35" d="M26.5 3.72498H5.5C4.39543 3.72498 3.5 4.62041 3.5 5.72498V26.725C3.5 27.8295 4.39543 28.725 5.5 28.725H26.5C27.6046 28.725 28.5 27.8295 28.5 26.725V5.72498C28.5 4.62041 27.6046 3.72498 26.5 3.72498Z" stroke="url(#paint6_linear_856_205)" stroke-linecap="round" stroke-linejoin="round"/>
<defs>
<radialGradient id="paint0_radial_856_205" cx="0" cy="0" r="1" gradientUnits="userSpaceOnUse" gradientTransform="translate(26.3106 29.725) scale(3.69118 1.5)">
<stop stop-color="#181818"/>
<stop offset="1" stop-color="#181818" stop-opacity="0"/>
</radialGradient>
<radialGradient id="paint1_radial_856_205" cx="0" cy="0" r="1" gradientUnits="userSpaceOnUse" gradientTransform="translate(5.68938 29.725) rotate(180) scale(3.69118 1.5)">
<stop stop-color="#181818"/>
<stop offset="1" stop-color="#181818" stop-opacity="0"/>
</radialGradient>
<linearGradient id="paint2_linear_856_205" x1="16.7796" y1="31.2369" x2="16.7796" y2="28.2247" gradientUnits="userSpaceOnUse">
<stop stop-color="#181818" stop-opacity="0"/>
<stop offset="0.5" stop-color="#181818"/>
<stop offset="1" stop-color="#181818" stop-opacity="0"/>
</linearGradient>
<linearGradient id="paint3_linear_856_205" x1="16" y1="2.70639" x2="16" y2="29.7215" gradientUnits="userSpaceOnUse">
<stop stop-color="#5A5A5A"/>
<stop offset="1" stop-color="#333333"/>
</linearGradient>
<linearGradient id="paint4_linear_856_205" x1="16" y1="2.72498" x2="16" y2="29.725" gradientUnits="userSpaceOnUse">
<stop offset="0.4" stop-color="#B9C6B9"/>
<stop offset="0.6" stop-color="#0E141F"/>
</linearGradient>
<linearGradient id="paint5_linear_856_205" x1="13.5794" y1="3.19176" x2="13.5791" y2="16.2488" gradientUnits="userSpaceOnUse">
<stop stop-color="#DAE6DA" stop-opacity="0.941176"/>
<stop offset="1" stop-color="#B1BFB1"/>
</linearGradient>
<linearGradient id="paint6_linear_856_205" x1="16" y1="4.22498" x2="16" y2="28.225" gradientUnits="userSpaceOnUse">
<stop stop-color="white"/>
<stop offset="0.0416667" stop-color="white" stop-opacity="0.235294"/>
<stop offset="0.958333" stop-color="white" stop-opacity="0.156863"/>
<stop offset="1" stop-color="white" stop-opacity="0.392157"/>
</linearGradient>
</defs>
</svg>
