<svg width="32" height="32" viewBox="0 0 32 32" fill="none" xmlns="http://www.w3.org/2000/svg">
<g opacity="0.4">
<path d="M30 28H26.3158V31H30V28Z" fill="url(#paint0_radial_856_205)"/>
<path d="M1.99999 31H5.6842V28H1.99999V31Z" fill="url(#paint1_radial_856_205)"/>
<path d="M26.3158 28H5.6842V31H26.3158V28Z" fill="url(#paint2_linear_856_205)"/>
</g>
<path d="M26.5 2.5H5.5C3.84315 2.5 2.5 3.84315 2.5 5.5V26.5C2.5 28.1569 3.84315 29.5 5.5 29.5H26.5C28.1569 29.5 29.5 28.1569 29.5 26.5V5.5C29.5 3.84315 28.1569 2.5 26.5 2.5Z" fill="url(#paint3_linear_856_205)"/>
<path fill-rule="evenodd" clip-rule="evenodd" d="M5.5 3C4.11929 3 3 4.11929 3 5.5V26.5C3 27.8807 4.11929 29 5.5 29H26.5C27.8807 29 29 27.8807 29 26.5V5.5C29 4.11929 27.8807 3 26.5 3H5.5ZM2 5.5C2 3.567 3.567 2 5.5 2H26.5C28.433 2 30 3.567 30 5.5V26.5C30 28.433 28.433 30 26.5 30H5.5C3.567 30 2 28.433 2 26.5V5.5Z" fill="url(#paint4_linear_856_205)" fill-opacity="0.5"/>
<path d="M3 5.5C3 4.11929 4.11929 3 5.5 3H26.5C27.8807 3 29 4.11929 29 5.5V16H3V5.5Z" fill="url(#paint5_linear_856_205)"/>
<path fill-rule="evenodd" clip-rule="evenodd" d="M29 17H3V16H29V17Z" fill="#2A2A2A"/>
<path fill-rule="evenodd" clip-rule="evenodd" d="M15 29V16H16V29H15Z" fill="#2A2A2A"/>
<path fill-rule="evenodd" clip-rule="evenodd" d="M17 18H28V17H16V29H17V18Z" fill="white" fill-opacity="0.05"/>
<g opacity="0.8">
<path d="M5.96155 15.0023C5.82808 15.0023 5.69462 14.9893 5.56116 14.9633C5.43095 14.9405 5.31702 14.9112 5.21936 14.8754V14.0502C5.304 14.0827 5.40328 14.112 5.51721 14.1381C5.63114 14.1674 5.74508 14.182 5.85901 14.182C6.13896 14.182 6.33915 14.0892 6.45959 13.9037C6.58004 13.7181 6.64026 13.4642 6.64026 13.142V6.80408C6.64026 6.37764 6.70699 6.03259 6.84045 5.76892C6.97717 5.50525 7.16923 5.31156 7.41663 5.18787C7.66728 5.06417 7.96187 5.00232 8.30042 5.00232C8.42737 5.00232 8.55269 5.01208 8.67639 5.03162C8.80334 5.05115 8.91239 5.07882 9.00354 5.11462V5.94958C8.92216 5.91378 8.82613 5.88285 8.71545 5.85681C8.60803 5.83077 8.49898 5.81775 8.38831 5.81775C8.20927 5.81775 8.06278 5.86007 7.94885 5.9447C7.83818 6.02934 7.7568 6.14978 7.70471 6.30603C7.65263 6.46228 7.62659 6.64783 7.62659 6.86267V13.2054C7.62659 13.837 7.47522 14.2943 7.17249 14.5775C6.86975 14.8607 6.46611 15.0023 5.96155 15.0023Z" fill="#272863"/>
<path d="M13.4796 11.8959C13.5594 11.8959 13.6346 11.8856 13.7052 11.8651C13.7781 11.8446 13.8453 11.8173 13.9069 11.7831V12.494C13.8317 12.5396 13.728 12.5795 13.5958 12.6136C13.4637 12.6501 13.3281 12.6683 13.1891 12.6683C12.8769 12.6683 12.6297 12.5817 12.4474 12.4086C12.2651 12.2354 12.174 11.9597 12.174 11.5814V9.54431H10.9606V12.6H9.97961V9.54431H9.18665V9.12048L9.78479 8.78894H13.9547V9.54431H13.1583V11.5404C13.1583 11.6612 13.1891 11.7512 13.2506 11.8104C13.3121 11.8674 13.3885 11.8959 13.4796 11.8959Z" fill="#272863"/>
<path d="M15.5509 10.6517L14.3136 8.78894H15.4279L16.2003 10.0331L16.9796 8.78894H18.0939L16.8429 10.6517L18.152 12.6H17.0343L16.2003 11.2635L15.3629 12.6H14.2487L15.5509 10.6517Z" fill="#272863"/>
<path d="M19.9772 12.6683C19.5465 12.6683 19.1967 12.502 18.9279 12.1693C18.659 11.8366 18.5245 11.3479 18.5245 10.703C18.5245 10.049 18.6601 9.55457 18.9313 9.2196C19.2047 8.88464 19.5625 8.71716 20.0045 8.71716C20.1891 8.71716 20.3509 8.74223 20.4899 8.79236C20.6311 8.84249 20.7519 8.90971 20.8522 8.99402C20.9547 9.07833 21.0413 9.17403 21.1119 9.28113H21.1495C21.1359 9.20821 21.1199 9.10225 21.1017 8.96326C21.0835 8.82198 21.0743 8.6807 21.0743 8.53943V7.28162H22.0621V12.6H21.3033L21.1154 12.101H21.0743C21.0083 12.2058 20.9251 12.3015 20.8248 12.3881C20.7246 12.4746 20.6049 12.543 20.4659 12.5931C20.3269 12.6433 20.164 12.6683 19.9772 12.6683ZM20.3087 11.8822C20.6095 11.8822 20.8214 11.7945 20.9445 11.619C21.0675 11.4413 21.1324 11.1747 21.1393 10.8192V10.7064C21.1393 10.3213 21.0789 10.0274 20.9581 9.82458C20.8396 9.61951 20.6186 9.51697 20.295 9.51697C20.049 9.51697 19.8587 9.62065 19.7242 9.828C19.5898 10.0354 19.5226 10.3316 19.5226 10.7167C19.5226 11.0995 19.5898 11.39 19.7242 11.5883C19.861 11.7842 20.0558 11.8822 20.3087 11.8822Z" fill="#272863"/>
<path d="M23.9659 10.6517L22.7286 8.78894H23.8429L24.6154 10.0331L25.3947 8.78894H26.5089L25.2579 10.6517L26.567 12.6H25.4493L24.6154 11.2635L23.778 12.6H22.6637L23.9659 10.6517Z" fill="#272863"/>
</g>
<path d="M3 5.5C3 4.11929 4.11929 3 5.5 3H26.5C27.8807 3 29 4.11929 29 5.5V16H3V5.5Z" fill="url(#paint6_radial_856_205)" fill-opacity="0.75"/>
<path fill-rule="evenodd" clip-rule="evenodd" d="M15 18L4 18V17L15 17V18Z" fill="white" fill-opacity="0.05"/>
<path d="M8.61816 27.0581L7.53076 24.1196H6.80859V23.0322H8.25293L9.0249 25.1655L10.9299 19.7078H12.0505L9.5105 27.0581H8.61816Z" fill="black" fill-opacity="0.25"/>
<path d="M8.61816 26.0581L7.53076 23.1196H6.80859V22.0322H8.25293L9.0249 24.1655L10.9299 18.7078H12.0505L9.5105 26.0581H8.61816Z" fill="white"/>
<path d="M22.9673 23.644H25.1157V24.6001H22.9673V26.77H22.0112V24.6001H19.8682V23.644H22.0112V21.4526H22.9673V23.644Z" fill="black" fill-opacity="0.25"/>
<path d="M22.9673 22.644H25.1157V23.6001H22.9673V25.77H22.0112V23.6001H19.8682V22.644H22.0112V20.4526H22.9673V22.644Z" fill="white"/>
<path opacity="0.35" d="M26.5 3.5H5.5C4.39543 3.5 3.5 4.39543 3.5 5.5V26.5C3.5 27.6046 4.39543 28.5 5.5 28.5H26.5C27.6046 28.5 28.5 27.6046 28.5 26.5V5.5C28.5 4.39543 27.6046 3.5 26.5 3.5Z" stroke="url(#paint7_linear_856_205)" stroke-linecap="round" stroke-linejoin="round"/>
<defs>
<radialGradient id="paint0_radial_856_205" cx="0" cy="0" r="1" gradientUnits="userSpaceOnUse" gradientTransform="translate(26.3106 29.5) scale(3.69118 1.5)">
<stop stop-color="#181818"/>
<stop offset="1" stop-color="#181818" stop-opacity="0"/>
</radialGradient>
<radialGradient id="paint1_radial_856_205" cx="0" cy="0" r="1" gradientUnits="userSpaceOnUse" gradientTransform="translate(5.68938 29.5) rotate(180) scale(3.69118 1.5)">
<stop stop-color="#181818"/>
<stop offset="1" stop-color="#181818" stop-opacity="0"/>
</radialGradient>
<linearGradient id="paint2_linear_856_205" x1="16.7796" y1="31.0119" x2="16.7796" y2="27.9998" gradientUnits="userSpaceOnUse">
<stop stop-color="#181818" stop-opacity="0"/>
<stop offset="0.5" stop-color="#181818"/>
<stop offset="1" stop-color="#181818" stop-opacity="0"/>
</linearGradient>
<linearGradient id="paint3_linear_856_205" x1="16" y1="2.48141" x2="16" y2="29.4965" gradientUnits="userSpaceOnUse">
<stop stop-color="#5A5A5A"/>
<stop offset="1" stop-color="#333333"/>
</linearGradient>
<linearGradient id="paint4_linear_856_205" x1="16" y1="2.5" x2="16" y2="29.5" gradientUnits="userSpaceOnUse">
<stop offset="0.4" stop-color="#728D72"/>
<stop offset="0.6" stop-color="#0E141F"/>
</linearGradient>
<linearGradient id="paint5_linear_856_205" x1="13.5794" y1="2.96679" x2="13.5791" y2="16.0238" gradientUnits="userSpaceOnUse">
<stop stop-color="#B1BFB1"/>
<stop offset="1" stop-color="#DAE6DA" stop-opacity="0.941176"/>
</linearGradient>
<radialGradient id="paint6_radial_856_205" cx="0" cy="0" r="1" gradientUnits="userSpaceOnUse" gradientTransform="translate(13.6053 3) rotate(72.0904) scale(7.78735 29.949)">
<stop stop-color="white"/>
<stop offset="0.9999" stop-color="white" stop-opacity="0.2"/>
<stop offset="1" stop-color="white" stop-opacity="0"/>
</radialGradient>
<linearGradient id="paint7_linear_856_205" x1="16" y1="4" x2="16" y2="28" gradientUnits="userSpaceOnUse">
<stop stop-color="white"/>
<stop offset="0.0416667" stop-color="white" stop-opacity="0.235294"/>
<stop offset="0.958333" stop-color="white" stop-opacity="0.156863"/>
<stop offset="1" stop-color="white" stop-opacity="0.392157"/>
</linearGradient>
</defs>
</svg>
