<svg width="64" height="65" viewBox="0 0 64 65" fill="none" xmlns="http://www.w3.org/2000/svg">
<path opacity="0.6" d="M60 56.725H54V61.725H60V56.725Z" fill="url(#paint0_radial_856_265)"/>
<path opacity="0.6" d="M4 61.725H10V56.725H4V61.725Z" fill="url(#paint1_radial_856_265)"/>
<path opacity="0.6" d="M54 56.725H10V61.725H54V56.725Z" fill="url(#paint2_linear_856_265)"/>
<path d="M53.5 4.72498H10.5C7.18629 4.72498 4.5 7.41127 4.5 10.725V53.725C4.5 57.0387 7.18629 59.725 10.5 59.725H53.5C56.8137 59.725 59.5 57.0387 59.5 53.725V10.725C59.5 7.41127 56.8137 4.72498 53.5 4.72498Z" fill="url(#paint3_linear_856_265)" stroke="url(#paint4_linear_856_265)" stroke-opacity="0.5" stroke-width="0.999998"/>
<path d="M5 10.725C5 7.68741 7.46243 5.22498 10.5 5.22498H53.5C56.5376 5.22498 59 7.68741 59 10.725V32.225H5V10.725Z" fill="url(#paint5_linear_856_265)"/>
<line x1="5" y1="32.725" x2="58.9647" y2="32.725" stroke="#2A2A2A"/>
<path d="M31.5 33.225V58.225" stroke="#2A2A2A"/>
<path d="M32.5385 58.2037L32.5 33.725H58" stroke="white" stroke-opacity="0.05"/>
<g opacity="0.8">
<path d="M10.7651 29.6693C10.5543 29.6693 10.3526 29.6512 10.1599 29.6151C9.96718 29.585 9.78953 29.5428 9.62693 29.4886V28.5673C9.75942 28.6154 9.91299 28.6576 10.0876 28.6937C10.2683 28.7359 10.47 28.757 10.6929 28.757C11.2529 28.757 11.6775 28.5552 11.9665 28.1517C12.2556 27.7483 12.4001 27.143 12.4001 26.3361V14.5026C12.4001 13.7257 12.5055 13.0934 12.7163 12.6056C12.9331 12.1118 13.2432 11.7504 13.6467 11.5216C14.0562 11.2867 14.5561 11.1693 15.1462 11.1693C15.3269 11.1693 15.5075 11.1814 15.6882 11.2054C15.8689 11.2295 16.0224 11.2627 16.1489 11.3048V12.2352C16.0164 12.1931 15.8629 12.1569 15.6882 12.1268C15.5136 12.0907 15.3419 12.0726 15.1733 12.0726C14.7819 12.0726 14.4597 12.163 14.2068 12.3436C13.9538 12.5183 13.7672 12.7923 13.6467 13.1656C13.5263 13.533 13.466 14.0148 13.466 14.611V26.4083C13.466 27.5405 13.2191 28.3655 12.7253 28.8834C12.2315 29.4073 11.5781 29.6693 10.7651 29.6693ZM24.165 24.5345C24.2972 24.5345 24.4134 24.5209 24.5137 24.4935C24.6139 24.4662 24.6982 24.4366 24.7666 24.4047V25.2113C24.6937 25.2478 24.5843 25.2819 24.4385 25.3138C24.2926 25.3457 24.1194 25.3617 23.9189 25.3617C23.445 25.3617 23.0827 25.2204 22.832 24.9379C22.5859 24.6508 22.4629 24.2269 22.4629 23.6664V18.5873H19.0996V25.225H18.1084V18.5873H16.5908V18.1156L17.6504 17.7533H24.9443V18.5873H23.4541V23.5775C23.4541 23.9193 23.5156 24.1654 23.6387 24.3158C23.7663 24.4616 23.9417 24.5345 24.165 24.5345ZM28.3691 21.3969L25.7783 17.7533H26.9336L28.9775 20.7133L31.0146 17.7533H32.1562L29.5654 21.3969L32.2998 25.225H31.1513L28.9775 22.0873L26.7969 25.225H25.6553L28.3691 21.3969ZM36.4765 25.3617C35.5058 25.3617 34.7471 25.0404 34.2002 24.3978C33.6533 23.7507 33.3799 22.7959 33.3799 21.5336C33.3799 20.2484 33.6624 19.2732 34.2275 18.6078C34.7926 17.9424 35.5537 17.6097 36.5107 17.6097C36.9163 17.6097 37.2695 17.6667 37.5703 17.7806C37.8756 17.8946 38.1354 18.0472 38.3496 18.2386C38.5638 18.4301 38.7392 18.6465 38.876 18.8881H38.9512C38.9329 18.7149 38.9147 18.5007 38.8965 18.2455C38.8828 17.9903 38.876 17.7738 38.876 17.5961V14.5883H39.8808V25.225H39.0674L38.9238 24.0697H38.876C38.7392 24.3067 38.5615 24.5232 38.3428 24.7191C38.1286 24.9151 37.8688 25.0723 37.5635 25.1908C37.2581 25.3047 36.8958 25.3617 36.4765 25.3617ZM36.6201 24.5209C37.445 24.5209 38.0283 24.2793 38.3701 23.7963C38.7165 23.3132 38.8896 22.6068 38.8896 21.6771V21.4994C38.8896 20.5196 38.7233 19.7676 38.3906 19.2435C38.0579 18.7149 37.4746 18.4506 36.6406 18.4506C35.9023 18.4506 35.3463 18.724 34.9726 19.2709C34.6035 19.8177 34.4189 20.5811 34.4189 21.5609C34.4189 22.5134 34.5989 23.2448 34.959 23.7552C35.3235 24.2657 35.8773 24.5209 36.6201 24.5209ZM44.0918 21.3969L41.501 17.7533H42.6562L44.7002 20.7133L46.7373 17.7533H47.8789L45.2881 21.3969L48.0224 25.225H46.874L44.7002 22.0873L42.5195 25.225H41.3779L44.0918 21.3969Z" fill="#272863"/>
</g>
<path d="M6 33.725L31 33.725" stroke="white" stroke-opacity="0.05"/>
<path d="M6 31.725L58 31.725" stroke="white" stroke-opacity="0.05"/>
<path d="M16.8771 53.9303L14.7443 47.9928H13.3458V46.6412H15.7287L17.463 51.5475L21.3927 40.36H22.7833L18.088 53.9303H16.8771Z" fill="black" fill-opacity="0.25"/>
<path d="M16.8771 52.5327L14.7443 46.5952H13.3458V45.2437H15.7287L17.463 50.1499L21.3927 38.9624H22.7833L18.088 52.5327H16.8771Z" fill="white"/>
<path d="M46.1445 46.5101H50.168V47.8383H46.1445V51.9789H44.8066V47.8383H40.7832V46.5101H44.8066V42.35H46.1445V46.5101Z" fill="black" fill-opacity="0.25"/>
<path d="M46.1445 45.5101H50.168V46.8383H46.1445V50.9789H44.8066V46.8383H40.7832V45.5101H44.8066V41.35H46.1445V45.5101Z" fill="white"/>
<path opacity="0.5" d="M53.5 5.72498H10.5C7.73858 5.72498 5.5 7.95755 5.5 10.7116V53.7384C5.5 56.4924 7.73858 58.725 10.5 58.725H53.5C56.2614 58.725 58.5 56.4924 58.5 53.7384V10.7116C58.5 7.95755 56.2614 5.72498 53.5 5.72498Z" stroke="url(#paint6_linear_856_265)" stroke-linecap="round" stroke-linejoin="round"/>
<defs>
<radialGradient id="paint0_radial_856_265" cx="0" cy="0" r="1" gradientUnits="userSpaceOnUse" gradientTransform="translate(53.9916 59.225) scale(6.01135 2.5)">
<stop stop-color="#181818"/>
<stop offset="1" stop-color="#181818" stop-opacity="0"/>
</radialGradient>
<radialGradient id="paint1_radial_856_265" cx="0" cy="0" r="1" gradientUnits="userSpaceOnUse" gradientTransform="translate(10.0084 59.225) rotate(180) scale(6.01135 2.5)">
<stop stop-color="#181818"/>
<stop offset="1" stop-color="#181818" stop-opacity="0"/>
</radialGradient>
<linearGradient id="paint2_linear_856_265" x1="33.6627" y1="61.7448" x2="33.6627" y2="56.7246" gradientUnits="userSpaceOnUse">
<stop stop-color="#181818" stop-opacity="0"/>
<stop offset="0.5" stop-color="#181818"/>
<stop offset="1" stop-color="#181818" stop-opacity="0"/>
</linearGradient>
<linearGradient id="paint3_linear_856_265" x1="32" y1="4.68711" x2="32" y2="59.7179" gradientUnits="userSpaceOnUse">
<stop stop-color="#5A5A5A"/>
<stop offset="1" stop-color="#333333"/>
</linearGradient>
<linearGradient id="paint4_linear_856_265" x1="32" y1="4.72498" x2="32" y2="59.725" gradientUnits="userSpaceOnUse">
<stop offset="0.4" stop-color="#B9C6B9"/>
<stop offset="0.6" stop-color="#0E141F"/>
</linearGradient>
<linearGradient id="paint5_linear_856_265" x1="26.9726" y1="5.15599" x2="26.9719" y2="32.2744" gradientUnits="userSpaceOnUse">
<stop stop-color="#DAE6DA" stop-opacity="0.941176"/>
<stop offset="1" stop-color="#B1BFB1"/>
</linearGradient>
<linearGradient id="paint6_linear_856_265" x1="32" y1="5.00875" x2="32" y2="59.4412" gradientUnits="userSpaceOnUse">
<stop stop-color="white"/>
<stop offset="0.0631645" stop-color="white" stop-opacity="0.235294"/>
<stop offset="0.950563" stop-color="white" stop-opacity="0.156863"/>
<stop offset="1" stop-color="white" stop-opacity="0.392157"/>
</linearGradient>
</defs>
</svg>
