<svg width="64" height="64" viewBox="0 0 64 64" fill="none" xmlns="http://www.w3.org/2000/svg">
<path opacity="0.6" d="M60 56.5H54V61.5H60V56.5Z" fill="url(#paint0_radial_856_265)"/>
<path opacity="0.6" d="M4 61.5H10V56.5H4V61.5Z" fill="url(#paint1_radial_856_265)"/>
<path opacity="0.6" d="M54 56.5H10V61.5H54V56.5Z" fill="url(#paint2_linear_856_265)"/>
<path d="M53.5 4.5H10.5C7.18629 4.5 4.5 7.18629 4.5 10.5V53.5C4.5 56.8137 7.18629 59.5 10.5 59.5H53.5C56.8137 59.5 59.5 56.8137 59.5 53.5V10.5C59.5 7.18629 56.8137 4.5 53.5 4.5Z" fill="url(#paint3_linear_856_265)"/>
<path fill-rule="evenodd" clip-rule="evenodd" d="M10.5 5C7.46243 5 5 7.46243 5 10.5V53.5C5 56.5376 7.46243 59 10.5 59H53.5C56.5376 59 59 56.5376 59 53.5V10.5C59 7.46243 56.5376 5 53.5 5H10.5ZM4 10.5C4 6.91015 6.91015 4 10.5 4H53.5C57.0899 4 60 6.91015 60 10.5V53.5C60 57.0899 57.0899 60 53.5 60H10.5C6.91015 60 4 57.0899 4 53.5V10.5Z" fill="url(#paint4_linear_856_265)" fill-opacity="0.5"/>
<path d="M5 10.5C5 7.46243 7.46243 5 10.5 5H53.5C56.5376 5 59 7.46243 59 10.5V32H5V10.5Z" fill="url(#paint5_linear_856_265)"/>
<line x1="5" y1="32.5" x2="58.9647" y2="32.5" stroke="#2A2A2A"/>
<path d="M31.5 33V58" stroke="#2A2A2A"/>
<path d="M32.5385 57.9787L32.5 33.5H58" stroke="white" stroke-opacity="0.05"/>
<g opacity="0.8">
<path d="M10.7651 29.4443C10.5543 29.4443 10.3526 29.4263 10.1599 29.3901C9.96718 29.36 9.78953 29.3179 9.62693 29.2637V28.3423C9.75942 28.3905 9.91299 28.4326 10.0876 28.4688C10.2683 28.5109 10.47 28.532 10.6929 28.532C11.2529 28.532 11.6775 28.3302 11.9665 27.9268C12.2556 27.5233 12.4001 26.9181 12.4001 26.1111V14.2776C12.4001 13.5007 12.5055 12.8684 12.7163 12.3806C12.9331 11.8868 13.2432 11.5255 13.6467 11.2966C14.0562 11.0618 14.5561 10.9443 15.1462 10.9443C15.3269 10.9443 15.5075 10.9564 15.6882 10.9805C15.8689 11.0046 16.0224 11.0377 16.1489 11.0798V12.0103C16.0164 11.9681 15.8629 11.932 15.6882 11.9019C15.5136 11.8657 15.3419 11.8477 15.1733 11.8477C14.7819 11.8477 14.4597 11.938 14.2068 12.1187C13.9538 12.2933 13.7672 12.5673 13.6467 12.9407C13.5263 13.308 13.466 13.7898 13.466 14.386V26.1833C13.466 27.3155 13.2191 28.1405 12.7253 28.6584C12.2315 29.1824 11.5781 29.4443 10.7651 29.4443ZM24.165 24.3096C24.2972 24.3096 24.4134 24.2959 24.5137 24.2686C24.6139 24.2412 24.6982 24.2116 24.7666 24.1797V24.9863C24.6937 25.0228 24.5843 25.057 24.4385 25.0889C24.2926 25.1208 24.1194 25.1367 23.9189 25.1367C23.445 25.1367 23.0827 24.9954 22.832 24.7129C22.5859 24.4258 22.4629 24.002 22.4629 23.4414V18.3623H19.0996V25H18.1084V18.3623H16.5908V17.8906L17.6504 17.5283H24.9443V18.3623H23.4541V23.3525C23.4541 23.6943 23.5156 23.9404 23.6387 24.0908C23.7663 24.2367 23.9417 24.3096 24.165 24.3096ZM28.3691 21.1719L25.7783 17.5283H26.9336L28.9775 20.4883L31.0146 17.5283H32.1562L29.5654 21.1719L32.2998 25H31.1513L28.9775 21.8623L26.7969 25H25.6553L28.3691 21.1719ZM36.4765 25.1367C35.5058 25.1367 34.7471 24.8154 34.2002 24.1729C33.6533 23.5257 33.3799 22.571 33.3799 21.3086C33.3799 20.0234 33.6624 19.0482 34.2275 18.3828C34.7926 17.7174 35.5537 17.3848 36.5107 17.3848C36.9163 17.3848 37.2695 17.4417 37.5703 17.5557C37.8756 17.6696 38.1354 17.8223 38.3496 18.0137C38.5638 18.2051 38.7392 18.4215 38.876 18.6631H38.9512C38.9329 18.4899 38.9147 18.2757 38.8965 18.0205C38.8828 17.7653 38.876 17.5488 38.876 17.3711V14.3633H39.8808V25H39.0674L38.9238 23.8447H38.876C38.7392 24.0817 38.5615 24.2982 38.3428 24.4941C38.1286 24.6901 37.8688 24.8473 37.5635 24.9658C37.2581 25.0798 36.8958 25.1367 36.4765 25.1367ZM36.6201 24.2959C37.445 24.2959 38.0283 24.0544 38.3701 23.5713C38.7165 23.0882 38.8896 22.3818 38.8896 21.4521V21.2744C38.8896 20.2946 38.7233 19.5426 38.3906 19.0186C38.0579 18.4899 37.4746 18.2256 36.6406 18.2256C35.9023 18.2256 35.3463 18.499 34.9726 19.0459C34.6035 19.5928 34.4189 20.3561 34.4189 21.3359C34.4189 22.2884 34.5989 23.0199 34.959 23.5303C35.3235 24.0407 35.8773 24.2959 36.6201 24.2959ZM44.0918 21.1719L41.501 17.5283H42.6562L44.7002 20.4883L46.7373 17.5283H47.8789L45.2881 21.1719L48.0224 25H46.874L44.7002 21.8623L42.5195 25H41.3779L44.0918 21.1719Z" fill="#272863"/>
</g>
<path d="M5 10.5C5 7.46243 7.46243 5 10.5 5H53.5C56.5376 5 59 7.46243 59 10.5V32H5V10.5Z" fill="url(#paint6_radial_856_265)" fill-opacity="0.75"/>
<path d="M6 33.5L31 33.5" stroke="white" stroke-opacity="0.05"/>
<path d="M6 31.5L58 31.5" stroke="white" stroke-opacity="0.05"/>
<path d="M16.8771 53.7053L14.7443 47.7678H13.3458V46.4163H15.7287L17.463 51.3225L21.3927 40.135H22.7833L18.088 53.7053H16.8771Z" fill="black" fill-opacity="0.25"/>
<path d="M16.8771 52.3077L14.7443 46.3702H13.3458V45.0187H15.7287L17.463 49.9249L21.3927 38.7374H22.7833L18.088 52.3077H16.8771Z" fill="white"/>
<path d="M46.1445 46.2852H50.168V47.6133H46.1445V51.7539H44.8066V47.6133H40.7832V46.2852H44.8066V42.125H46.1445V46.2852Z" fill="black" fill-opacity="0.25"/>
<path d="M46.1445 45.2852H50.168V46.6133H46.1445V50.7539H44.8066V46.6133H40.7832V45.2852H44.8066V41.125H46.1445V45.2852Z" fill="white"/>
<path opacity="0.5" d="M53.5 5.5H10.5C7.73858 5.5 5.5 7.73257 5.5 10.4866V53.5134C5.5 56.2674 7.73858 58.5 10.5 58.5H53.5C56.2614 58.5 58.5 56.2674 58.5 53.5134V10.4866C58.5 7.73257 56.2614 5.5 53.5 5.5Z" stroke="url(#paint7_linear_856_265)" stroke-linecap="round" stroke-linejoin="round"/>
<defs>
<radialGradient id="paint0_radial_856_265" cx="0" cy="0" r="1" gradientUnits="userSpaceOnUse" gradientTransform="translate(53.9916 59) scale(6.01135 2.5)">
<stop stop-color="#181818"/>
<stop offset="1" stop-color="#181818" stop-opacity="0"/>
</radialGradient>
<radialGradient id="paint1_radial_856_265" cx="0" cy="0" r="1" gradientUnits="userSpaceOnUse" gradientTransform="translate(10.0084 59) rotate(180) scale(6.01135 2.5)">
<stop stop-color="#181818"/>
<stop offset="1" stop-color="#181818" stop-opacity="0"/>
</radialGradient>
<linearGradient id="paint2_linear_856_265" x1="33.6627" y1="61.5198" x2="33.6627" y2="56.4996" gradientUnits="userSpaceOnUse">
<stop stop-color="#181818" stop-opacity="0"/>
<stop offset="0.5" stop-color="#181818"/>
<stop offset="1" stop-color="#181818" stop-opacity="0"/>
</linearGradient>
<linearGradient id="paint3_linear_856_265" x1="32" y1="4.46213" x2="32" y2="59.4929" gradientUnits="userSpaceOnUse">
<stop stop-color="#5A5A5A"/>
<stop offset="1" stop-color="#333333"/>
</linearGradient>
<linearGradient id="paint4_linear_856_265" x1="32" y1="4.5" x2="32" y2="59.5" gradientUnits="userSpaceOnUse">
<stop offset="0.4" stop-color="#B9C6B9"/>
<stop offset="0.6" stop-color="#0E141F"/>
</linearGradient>
<linearGradient id="paint5_linear_856_265" x1="26.9726" y1="4.93102" x2="26.9719" y2="32.0494" gradientUnits="userSpaceOnUse">
<stop stop-color="#B1BFB1"/>
<stop offset="1" stop-color="#DAE6DA" stop-opacity="0.941176"/>
</linearGradient>
<radialGradient id="paint6_radial_856_265" cx="0" cy="0" r="1" gradientUnits="userSpaceOnUse" gradientTransform="translate(27.0263 5) rotate(72.0904) scale(16.1737 62.2019)">
<stop stop-color="white"/>
<stop offset="0.9999" stop-color="white" stop-opacity="0.2"/>
<stop offset="1" stop-color="white" stop-opacity="0"/>
</radialGradient>
<linearGradient id="paint7_linear_856_265" x1="32" y1="4.78377" x2="32" y2="59.2162" gradientUnits="userSpaceOnUse">
<stop stop-color="white"/>
<stop offset="0.0631645" stop-color="white" stop-opacity="0.235294"/>
<stop offset="0.950563" stop-color="white" stop-opacity="0.156863"/>
<stop offset="1" stop-color="white" stop-opacity="0.392157"/>
</linearGradient>
</defs>
</svg>
